<svg xmlns="http://www.w3.org/2000/svg" viewBox="0 0 548.57 92.38"><defs><style>.cls-1{fill:#ec1c24;}.cls-2{fill:#fff;}</style></defs><title>Asset 3logo2</title><g id="Layer_2" data-name="Layer 2"><g id="Layer_1-2" data-name="Layer 1"><path class="cls-1" d="M282.1,51.66a4.14,4.14,0,0,1,1-2.87,3.91,3.91,0,0,1,3.07-1.15,4,4,0,0,1,3.1,1.15,4.08,4.08,0,0,1,1.06,2.87,3.83,3.83,0,0,1-1.06,2.77,4.08,4.08,0,0,1-3.1,1.11,4,4,0,0,1-3.07-1.11A3.9,3.9,0,0,1,282.1,51.66Z"/><path class="cls-2" d="M9.73,17l.32,4.35a13.65,13.65,0,0,1,11.17-5.07q7.5,0,10.3,5.93a13.35,13.35,0,0,1,11.67-5.93q6.31,0,9.41,3.68T55.69,31V55.83H45.27V31.06q0-3.31-1.29-4.83T39.42,24.7A6.47,6.47,0,0,0,33,29.15l0,26.68H22.62V31.09q0-3.37-1.33-4.88c-.89-1-2.39-1.51-4.52-1.51a6.71,6.71,0,0,0-6.39,3.66V55.83H0V17Z"/><path class="cls-2" d="M63.71,35.69a23.11,23.11,0,0,1,2.22-10.31,16.35,16.35,0,0,1,6.41-7,18.73,18.73,0,0,1,9.71-2.48,17.73,17.73,0,0,1,12.84,4.81q5,4.82,5.55,13.07l.07,2.66q0,8.94-5,14.34T82.13,56.19q-8.4,0-13.41-5.39t-5-14.65Zm10.37.73c0,3.69.7,6.52,2.09,8.47a7.48,7.48,0,0,0,11.84,0c1.42-1.93,2.12-5,2.12-9.26,0-3.62-.7-6.43-2.12-8.42a6.87,6.87,0,0,0-6-3,6.76,6.76,0,0,0-5.88,3C74.78,29.21,74.08,32.28,74.08,36.42Z"/><path class="cls-2" d="M166,44.41a3.34,3.34,0,0,0-1.89-3,21.19,21.19,0,0,0-6-1.95q-13.86-2.91-13.86-11.78a10.66,10.66,0,0,1,4.3-8.63q4.29-3.47,11.22-3.47,7.4,0,11.82,3.49a11,11,0,0,1,4.44,9H165.56a5.05,5.05,0,0,0-1.43-3.68A6.09,6.09,0,0,0,159.64,23a6.22,6.22,0,0,0-4.06,1.18,3.74,3.74,0,0,0-1.43,3A3.18,3.18,0,0,0,155.78,30a16.65,16.65,0,0,0,5.51,1.83,46.27,46.27,0,0,1,6.53,1.74q8.24,3,8.23,10.45a10.14,10.14,0,0,1-4.56,8.6q-4.56,3.29-11.78,3.29A20.59,20.59,0,0,1,151,54.12a14.47,14.47,0,0,1-5.94-4.77,11.08,11.08,0,0,1-2.16-6.55h9.84A5.42,5.42,0,0,0,154.83,47a8.14,8.14,0,0,0,5.1,1.48,7.47,7.47,0,0,0,4.5-1.14A3.51,3.51,0,0,0,166,44.41Z"/><path class="cls-2" d="M205.24,55.15a11.7,11.7,0,0,1-1.05-3.49,12.56,12.56,0,0,1-9.8,4.21,13.81,13.81,0,0,1-9.46-3.31,10.62,10.62,0,0,1-3.75-8.33,11,11,0,0,1,4.58-9.48q4.58-3.3,13.23-3.33h4.77V29.19a6.41,6.41,0,0,0-1.38-4.31A5.41,5.41,0,0,0,198,23.27a6.15,6.15,0,0,0-4.11,1.25A4.26,4.26,0,0,0,192.42,28H182a10.49,10.49,0,0,1,2.08-6.25,13.86,13.86,0,0,1,5.89-4.5,21.48,21.48,0,0,1,8.55-1.64q7.17,0,11.4,3.61t4.21,10.14V46.17c0,3.69.54,6.48,1.55,8.37v.61Zm-8.59-7.22a8.94,8.94,0,0,0,4.24-1,6.7,6.7,0,0,0,2.87-2.75V37.48h-3.87q-7.8,0-8.3,5.39l0,.61a4.13,4.13,0,0,0,1.36,3.19A5.28,5.28,0,0,0,196.65,47.93Z"/><path class="cls-2" d="M222.07,6.25a5.07,5.07,0,0,1,1.57-3.84,6.72,6.72,0,0,1,8.49,0,5.07,5.07,0,0,1,1.58,3.84,5.09,5.09,0,0,1-1.6,3.87,6.65,6.65,0,0,1-8.44,0A5.09,5.09,0,0,1,222.07,6.25Zm11,48.9H222.68V16.3H233.1Z"/><path class="cls-2" d="M255.75,39.56,252,43.3V55.15H241.64V0H252V30.55L254,28,264,16.3h12.46l-14,16.19,15.26,22.66H265.73Z"/><path class="cls-2" d="M299.7,35.4q0-8.94,4.23-14.38a14.41,14.41,0,0,1,21.9-.77V0h6.64V55.15h-6.1L326.05,51q-4,4.89-11.1,4.89a13.28,13.28,0,0,1-11-5.53q-4.26-5.54-4.25-14.44Zm6.64.75q0,6.62,2.73,10.34a8.81,8.81,0,0,0,7.54,3.74,9.68,9.68,0,0,0,9.22-5.67V26.71a9.76,9.76,0,0,0-9.15-5.49A8.85,8.85,0,0,0,309.07,25Q306.34,28.76,306.34,36.15Z"/><path class="cls-2" d="M358.9,55.87a17,17,0,0,1-12.85-5.19q-5-5.19-5-13.88V35.58a23.35,23.35,0,0,1,2.21-10.32,17.21,17.21,0,0,1,6.17-7.11,15.57,15.57,0,0,1,8.6-2.57q7.57,0,11.78,5t4.2,14.29v2.77H347.73a13.84,13.84,0,0,0,3.36,9.28,10.56,10.56,0,0,0,8.17,3.53,11.56,11.56,0,0,0,6-1.43,15.11,15.11,0,0,0,4.27-3.81l4.06,3.16Q368.66,55.86,358.9,55.87ZM358.07,21A8.83,8.83,0,0,0,351.32,24a14.19,14.19,0,0,0-3.37,8.2h19.46v-.5c-.19-3.38-1.1-6-2.73-7.85A8.36,8.36,0,0,0,358.07,21Z"/><path class="cls-2" d="M404.35,44.84a4.89,4.89,0,0,0-2-4.18q-2-1.48-7.07-2.57a34,34,0,0,1-8-2.58,11.49,11.49,0,0,1-4.38-3.59,8.63,8.63,0,0,1-1.41-5,10.06,10.06,0,0,1,4-8.07,15.77,15.77,0,0,1,10.33-3.31q6.6,0,10.71,3.41a10.84,10.84,0,0,1,4.11,8.73H404A6,6,0,0,0,401.64,23a8.7,8.7,0,0,0-5.83-2,9.13,9.13,0,0,0-5.68,1.58,5,5,0,0,0-2,4.13,4,4,0,0,0,1.9,3.62,23.14,23.14,0,0,0,6.88,2.34,36.34,36.34,0,0,1,8.06,2.65,11.76,11.76,0,0,1,4.57,3.72,9.09,9.09,0,0,1,1.49,5.3,9.94,9.94,0,0,1-4.16,8.34q-4.17,3.15-10.81,3.15a19.61,19.61,0,0,1-8.26-1.66,13.43,13.43,0,0,1-5.61-4.61,11.05,11.05,0,0,1-2-6.41h6.64a6.9,6.9,0,0,0,2.67,5.3A10.42,10.42,0,0,0,396,50.44a10.7,10.7,0,0,0,6.05-1.52A4.7,4.7,0,0,0,404.35,44.84Z"/><path class="cls-2" d="M419.68,6a4,4,0,0,1,1-2.73,3.72,3.72,0,0,1,2.93-1.12,3.77,3.77,0,0,1,2.94,1.12,3.91,3.91,0,0,1,1,2.73,3.8,3.8,0,0,1-1,2.69,3.82,3.82,0,0,1-2.94,1.08,3.77,3.77,0,0,1-2.93-1.08A3.84,3.84,0,0,1,419.68,6Zm7.18,49.15h-6.64V16.3h6.64Z"/><path class="cls-2" d="M435.91,35.4q0-9.07,4.2-14.45a13.43,13.43,0,0,1,11.13-5.37q7.11,0,11.09,5l.33-4.31h6.07V54.21q0,7.55-4.47,11.89t-12,4.34A20.12,20.12,0,0,1,444,68.65a14.16,14.16,0,0,1-6.13-4.92l3.44-4A13,13,0,0,0,451.78,65a10.19,10.19,0,0,0,7.56-2.73c1.8-1.82,2.71-4.38,2.71-7.68V51.27q-4,4.59-10.88,4.6a13.27,13.27,0,0,1-11-5.5Q435.92,44.88,435.91,35.4Zm6.68.75q0,6.57,2.69,10.33a8.76,8.76,0,0,0,7.54,3.75,9.73,9.73,0,0,0,9.23-5.71V26.78a9.85,9.85,0,0,0-9.16-5.56A8.83,8.83,0,0,0,445.32,25Q442.59,28.76,442.59,36.15Z"/><path class="cls-2" d="M485,16.3l.22,4.88a14.17,14.17,0,0,1,11.63-5.6q12.31,0,12.43,13.9V55.15h-6.65V29.44q0-4.2-1.92-6.21t-5.87-2a9.58,9.58,0,0,0-5.67,1.72,11.7,11.7,0,0,0-3.81,4.53V55.15h-6.64V16.3Z"/><path class="cls-2" d="M541.93,44.84a4.89,4.89,0,0,0-2-4.18q-2-1.48-7.07-2.57a34,34,0,0,1-8-2.58,11.49,11.49,0,0,1-4.38-3.59A8.64,8.64,0,0,1,519,27a10.07,10.07,0,0,1,4-8.07,15.77,15.77,0,0,1,10.33-3.31q6.6,0,10.71,3.41a10.84,10.84,0,0,1,4.11,8.73h-6.67A6,6,0,0,0,539.22,23a8.7,8.7,0,0,0-5.83-2,9.13,9.13,0,0,0-5.68,1.58,5,5,0,0,0-2,4.13,4,4,0,0,0,1.9,3.62,23.16,23.16,0,0,0,6.87,2.34,36.26,36.26,0,0,1,8.07,2.65,11.76,11.76,0,0,1,4.57,3.72,9.09,9.09,0,0,1,1.49,5.3,9.94,9.94,0,0,1-4.16,8.34q-4.17,3.15-10.81,3.15a19.61,19.61,0,0,1-8.26-1.66,13.52,13.52,0,0,1-5.62-4.61,11.12,11.12,0,0,1-2-6.41h6.64a6.9,6.9,0,0,0,2.67,5.3,10.42,10.42,0,0,0,6.59,1.95,10.7,10.7,0,0,0,6-1.52A4.7,4.7,0,0,0,541.93,44.84Z"/><path class="cls-2" d="M128.33,44.41a3.34,3.34,0,0,0-1.89-3,21.22,21.22,0,0,0-6-1.95q-13.86-2.91-13.86-11.78a10.68,10.68,0,0,1,4.29-8.63q4.29-3.47,11.22-3.47,7.39,0,11.83,3.49a11,11,0,0,1,4.43,9H127.93a5,5,0,0,0-1.43-3.68A6.08,6.08,0,0,0,122,23,6.22,6.22,0,0,0,118,24.16a3.77,3.77,0,0,0-1.43,3A3.18,3.18,0,0,0,118.15,30a16.65,16.65,0,0,0,5.51,1.83,46.44,46.44,0,0,1,6.54,1.74q8.22,3,8.22,10.45a10.14,10.14,0,0,1-4.56,8.6q-4.56,3.29-11.78,3.29a20.59,20.59,0,0,1-8.67-1.75,14.6,14.6,0,0,1-5.94-4.77,11.06,11.06,0,0,1-2.15-6.55h9.83a5.42,5.42,0,0,0,2,4.23,8.14,8.14,0,0,0,5.1,1.48,7.45,7.45,0,0,0,4.5-1.14A3.51,3.51,0,0,0,128.33,44.41Z"/><path class="cls-2" d="M322.68,77.33c-1.19.17-1.36.3-1.82,1.7-.56,1.7-1.93,6-2.86,9.06h-.58c-.88-2.65-2-5.93-2.91-8.45-1,2.93-2,5.83-2.87,8.45h-.57c-.85-2.92-1.82-6.1-2.73-9.08-.45-1.38-.63-1.57-1.74-1.68v-.48h4.2v.48c-1.26.13-1.29.32-1.05,1.17.66,2.3,1.34,4.56,2,7,.93-2.71,2-5.67,2.82-8.46h.55c.95,2.89,1.9,5.58,2.89,8.47.71-2.26,1.68-5.29,2.06-6.77.25-1,.12-1.2-1.33-1.37v-.48h3.9Z"/><path class="cls-2" d="M328.05,86.46a3.88,3.88,0,0,1-2.83,1.65,3.4,3.4,0,0,1-3.33-3.66,4.38,4.38,0,0,1,1.1-3,3.51,3.51,0,0,1,2.54-1.25,2.65,2.65,0,0,1,2.6,2.64c0,.34-.07.49-.34.56s-2.52.22-4.54.29c-.05,2.28,1.34,3.22,2.55,3.22a2.86,2.86,0,0,0,2-.87Zm-2.93-5.58c-.78,0-1.55.73-1.79,2.11,1,0,1.91,0,2.91,0,.31,0,.41-.09.41-.34A1.58,1.58,0,0,0,325.12,80.88Z"/><path class="cls-2" d="M341.4,87.48a17.75,17.75,0,0,0-2.64.63V87c-.31.18-.75.42-1.05.61a3.12,3.12,0,0,1-1.35.49,3.54,3.54,0,0,1-3.16-3.74,4.28,4.28,0,0,1,4.4-4.14,3.58,3.58,0,0,1,1.16.19v-2.5c0-1.09-.12-1.12-1.33-1.22v-.45a16.12,16.12,0,0,0,2.67-.58V85.93c0,.89.12,1,.75,1l.55,0Zm-2.64-5.71A2.12,2.12,0,0,0,337,80.9c-.81,0-2.26.54-2.26,3,0,2.06,1.28,3.15,2.37,3.17a3,3,0,0,0,1.68-.62Z"/><path class="cls-2" d="M346,80.23A3.66,3.66,0,0,1,349.71,84,3.81,3.81,0,0,1,346,88.11a3.73,3.73,0,0,1-3.77-3.79A3.9,3.9,0,0,1,346,80.23Zm-.2.58c-1,0-2,1-2,3,0,2.16.95,3.73,2.34,3.73,1.06,0,1.94-.77,1.94-3.1C348.11,82.43,347.3,80.81,345.8,80.81Z"/><path class="cls-2" d="M354.86,87.91v-.48c1.07-.1,1.19-.19,1.19-1.34V82.58c0-1-.05-1.12-1.07-1.29v-.41a10.7,10.7,0,0,0,2.42-.68v5.89c0,1.15.12,1.24,1.22,1.34v.48Zm1.77-9.38a.93.93,0,0,1-.9-.9.92.92,0,0,1,.92-.93.89.89,0,0,1,.87.93A.9.9,0,0,1,356.63,78.53Z"/><path class="cls-2" d="M362.72,87.89a1.76,1.76,0,0,1-.73.22c-1.09,0-1.67-.66-1.67-2v-5h-1.17l-.07-.21.46-.49h.78V79c.32-.34.82-.78,1.14-1.12l.26,0c0,.71-.05,1.7-.05,2.52h1.94a.53.53,0,0,1-.11.7h-1.83v4.35c0,1.38.54,1.64,1,1.64a2.43,2.43,0,0,0,1-.28l.15.44Z"/><path class="cls-2" d="M376.8,87.48a18,18,0,0,0-2.63.63V87c-.31.18-.75.42-1.06.61a3.1,3.1,0,0,1-1.34.49,3.55,3.55,0,0,1-3.17-3.74A4.29,4.29,0,0,1,373,80.23a3.58,3.58,0,0,1,1.16.19v-2.5c0-1.09-.12-1.12-1.33-1.22v-.45a16.12,16.12,0,0,0,2.67-.58V85.93c0,.89.12,1,.75,1l.54,0Zm-2.63-5.71a2.14,2.14,0,0,0-1.79-.87c-.82,0-2.26.54-2.26,3,0,2.06,1.27,3.15,2.36,3.17a3.07,3.07,0,0,0,1.69-.62Z"/><path class="cls-2" d="M377.6,87.91v-.48c1.07-.1,1.19-.19,1.19-1.34V82.58c0-1-.05-1.12-1.07-1.29v-.41a10.76,10.76,0,0,0,2.41-.68v5.89c0,1.15.12,1.24,1.23,1.34v.48Zm1.77-9.38a.92.92,0,0,1-.9-.9.91.91,0,0,1,.91-.93.89.89,0,0,1,.87.93A.9.9,0,0,1,379.37,78.53Z"/><path class="cls-2" d="M384.74,81.14v4.91c0,1.23,0,1.24,1.19,1.38v.48h-3.74v-.48c1.09-.1,1.21-.17,1.21-1.27v-5h-1.21l-.07-.19.38-.51h.9A4.46,4.46,0,0,1,385,77a4.34,4.34,0,0,1,2.21-1,2.77,2.77,0,0,1,2.2.93l-.77,1a2.2,2.2,0,0,0-2-1.14c-1.56,0-1.92,1.84-1.92,3.63h1.77v.7Zm1.35-.7H388a4.65,4.65,0,0,1,1.5-3.85,3.49,3.49,0,0,1,1.89-.92,1.92,1.92,0,0,1,1.38.57.65.65,0,0,1,.05.59,1,1,0,0,1-.36.44.32.32,0,0,1-.48,0,2,2,0,0,0-1.34-.63,1,1,0,0,0-.89.49,5.08,5.08,0,0,0-.4,2.56v.78h1.8a.65.65,0,0,1-.17.7h-1.63v4.91c0,1.23.18,1.24,1.48,1.38v.48h-3.95v-.48c1.05-.1,1.12-.17,1.12-1.27v-5h-1.9Z"/><path class="cls-2" d="M398,86.46a3.88,3.88,0,0,1-2.82,1.65,3.4,3.4,0,0,1-3.34-3.66,4.34,4.34,0,0,1,1.11-3,3.49,3.49,0,0,1,2.53-1.25,2.66,2.66,0,0,1,2.61,2.64c0,.34-.07.49-.34.56s-2.52.22-4.55.29c-.05,2.28,1.35,3.22,2.56,3.22a2.88,2.88,0,0,0,2-.87Zm-2.92-5.58c-.79,0-1.55.73-1.79,2.11.95,0,1.9,0,2.91,0,.31,0,.41-.09.41-.34A1.59,1.59,0,0,0,395.12,80.88Z"/><path class="cls-2" d="M403.06,87.91h-3.92v-.48c1.08-.1,1.18-.19,1.18-1.29V82.6c0-1.12-.07-1.18-1.06-1.29v-.43a9.41,9.41,0,0,0,2.4-.7v1.87c.6-.88,1.31-1.82,2.16-1.82a.89.89,0,0,1,1,.82,1.14,1.14,0,0,1-.58.94.33.33,0,0,1-.44,0,1.1,1.1,0,0,0-.77-.42c-.35,0-1,.52-1.36,1.39v3.2c0,1.12.09,1.21,1.4,1.31Z"/><path class="cls-2" d="M411.56,86.46a3.88,3.88,0,0,1-2.82,1.65,3.4,3.4,0,0,1-3.34-3.66,4.34,4.34,0,0,1,1.11-3A3.49,3.49,0,0,1,409,80.23a2.66,2.66,0,0,1,2.61,2.64c0,.34-.07.49-.34.56s-2.52.22-4.55.29c-.05,2.28,1.35,3.22,2.56,3.22a2.88,2.88,0,0,0,2-.87Zm-2.93-5.58c-.78,0-1.54.73-1.78,2.11.95,0,1.9,0,2.91,0,.3,0,.41-.09.41-.34A1.59,1.59,0,0,0,408.63,80.88Z"/><path class="cls-2" d="M417.55,87.91v-.48c1-.1,1.09-.22,1.09-1.38v-2.8c0-1.2-.43-2-1.55-2a3,3,0,0,0-1.89.89v4c0,1.17.1,1.21,1.1,1.31v.48h-3.67v-.48c1.12-.12,1.22-.19,1.22-1.31v-3.5c0-1.11-.11-1.16-1-1.31v-.45a9.22,9.22,0,0,0,2.38-.68v1.35c.34-.24.71-.5,1.16-.79a2.62,2.62,0,0,1,1.41-.51c1.36,0,2.21,1,2.21,2.66v3.23c0,1.16.1,1.21,1.09,1.31v.48Z"/><path class="cls-2" d="M425.28,87.89a1.76,1.76,0,0,1-.73.22c-1.09,0-1.67-.66-1.67-2v-5h-1.17l-.07-.21.46-.49h.78V79c.33-.34.82-.78,1.14-1.12l.26,0c0,.71,0,1.7,0,2.52h1.94a.54.54,0,0,1-.1.7h-1.84v4.35c0,1.38.54,1.64,1,1.64a2.38,2.38,0,0,0,1-.28l.16.44Z"/><path class="cls-2" d="M442.39,80.9c-.86.13-1,.32-1.37,1.27-.5,1.31-1.31,3.68-2,5.92h-.53c-.68-1.82-1.38-3.59-2-5.34-.63,1.57-1.4,3.46-2.08,5.34h-.51c-.61-2-1.26-4-2-6.07-.3-.92-.46-1-1.29-1.12v-.46h3.54v.46c-1,.17-1.09.25-.85,1,.39,1.31.85,2.7,1.26,4,.68-1.74,1.36-3.51,2-5.4H437c.63,1.77,1.33,3.61,2,5.45.38-1,.92-2.71,1.25-4,.22-.88.08-1-1.08-1.12v-.46h3.18Z"/><path class="cls-2" d="M449,86.46a3.88,3.88,0,0,1-2.82,1.65,3.4,3.4,0,0,1-3.34-3.66,4.34,4.34,0,0,1,1.11-3,3.49,3.49,0,0,1,2.54-1.25,2.65,2.65,0,0,1,2.6,2.64c0,.34-.07.49-.34.56s-2.52.22-4.54.29c-.05,2.28,1.34,3.22,2.55,3.22a2.86,2.86,0,0,0,2-.87Zm-2.92-5.58c-.79,0-1.55.73-1.79,2.11.95,0,1.91,0,2.91,0,.31,0,.41-.09.41-.34A1.58,1.58,0,0,0,446.05,80.88Z"/><path class="cls-2" d="M462.32,87.48a18,18,0,0,0-2.63.63V87c-.31.18-.75.42-1.06.61a3.1,3.1,0,0,1-1.34.49,3.55,3.55,0,0,1-3.17-3.74,4.29,4.29,0,0,1,4.41-4.14,3.58,3.58,0,0,1,1.16.19v-2.5c0-1.09-.12-1.12-1.33-1.22v-.45a16.12,16.12,0,0,0,2.67-.58V85.93c0,.89.12,1,.75,1l.54,0Zm-2.63-5.71a2.13,2.13,0,0,0-1.79-.87c-.82,0-2.26.54-2.26,3,0,2.06,1.27,3.15,2.36,3.17a3.07,3.07,0,0,0,1.69-.62Z"/><path class="cls-2" d="M466.93,80.23A3.66,3.66,0,0,1,470.64,84a3.81,3.81,0,0,1-3.71,4.07,3.74,3.74,0,0,1-3.78-3.79A3.9,3.9,0,0,1,466.93,80.23Zm-.2.58c-1,0-2,1-2,3,0,2.16,1,3.73,2.35,3.73,1.06,0,1.94-.77,1.94-3.1C469,82.43,468.22,80.81,466.73,80.81Z"/><path class="cls-2" d="M475.79,87.91v-.48c1.07-.1,1.19-.19,1.19-1.34V82.58c0-1-.05-1.12-1.07-1.29v-.41a10.76,10.76,0,0,0,2.41-.68v5.89c0,1.15.12,1.24,1.23,1.34v.48Zm1.77-9.38a.92.92,0,0,1-.9-.9.91.91,0,0,1,.92-.93.88.88,0,0,1,.86.93A.9.9,0,0,1,477.56,78.53Z"/><path class="cls-2" d="M483.65,87.89a1.76,1.76,0,0,1-.73.22c-1.09,0-1.67-.66-1.67-2v-5h-1.18l-.06-.21.46-.49h.78V79c.32-.34.81-.78,1.14-1.12l.25,0c0,.71-.05,1.7-.05,2.52h1.94a.54.54,0,0,1-.1.7h-1.84v4.35c0,1.38.55,1.64,1,1.64a2.43,2.43,0,0,0,1-.28l.15.44Z"/><path class="cls-2" d="M492.78,87.89a1.76,1.76,0,0,1-.73.22c-1.09,0-1.67-.66-1.67-2v-5h-1.17l-.07-.21.46-.49h.78V79c.32-.34.82-.78,1.14-1.12l.26,0c0,.71-.06,1.7-.06,2.52h1.94a.52.52,0,0,1-.1.7h-1.84v4.35c0,1.38.55,1.64,1,1.64a2.43,2.43,0,0,0,1-.28l.15.44Z"/><path class="cls-2" d="M498.19,80.23A3.66,3.66,0,0,1,501.9,84a3.82,3.82,0,0,1-3.71,4.07,3.74,3.74,0,0,1-3.78-3.79A3.9,3.9,0,0,1,498.19,80.23Zm-.21.58c-1,0-2,1-2,3,0,2.16.95,3.73,2.35,3.73,1.05,0,1.94-.77,1.94-3.1C500.3,82.43,499.48,80.81,498,80.81Z"/><path class="cls-2" d="M505.5,85.42a1.25,1.25,0,0,0-.56.85c0,.31.29.65,1.05.65l1.91,0c1.09,0,2.48.36,2.48,2s-2.09,3.43-4.35,3.43c-1.93,0-3-1.12-3-2.13a1.3,1.3,0,0,1,.43-1,16.28,16.28,0,0,1,1.39-1.23,2.19,2.19,0,0,1-1.27-.92,1.47,1.47,0,0,1-.21-.73,3.59,3.59,0,0,0,1.57-1.17Zm.82.17a2.64,2.64,0,0,1-2.9-2.57,2.94,2.94,0,0,1,3.07-2.84,3.51,3.51,0,0,1,1.63.43,11.39,11.39,0,0,0,2.28-.26l.1.16a2.11,2.11,0,0,1-.63.9c-.25,0-.82-.07-1.05-.09a2.63,2.63,0,0,1,.49,1.55A2.75,2.75,0,0,1,506.32,85.59Zm.39,2.52a2.14,2.14,0,0,0-1.52.36,2,2,0,0,0-.81,1.39c0,.94,1,1.64,2.28,1.64,1.61,0,2.53-.84,2.53-1.93a1.28,1.28,0,0,0-.75-1.24A4.69,4.69,0,0,0,506.71,88.11Zm-.39-7.38c-.77,0-1.45.69-1.45,2s.68,2.28,1.62,2.28c.74,0,1.41-.66,1.41-2S507.27,80.73,506.32,80.73Z"/><path class="cls-2" d="M517.17,86.46a3.88,3.88,0,0,1-2.83,1.65A3.4,3.4,0,0,1,511,84.45a4.38,4.38,0,0,1,1.1-3,3.51,3.51,0,0,1,2.54-1.25,2.65,2.65,0,0,1,2.6,2.64c0,.34-.07.49-.34.56s-2.52.22-4.54.29c0,2.28,1.34,3.22,2.55,3.22a2.86,2.86,0,0,0,2-.87Zm-2.93-5.58c-.78,0-1.55.73-1.79,2.11,1,0,1.91,0,2.91,0,.31,0,.41-.09.41-.34A1.58,1.58,0,0,0,514.24,80.88Z"/><path class="cls-2" d="M521.71,87.89a1.79,1.79,0,0,1-.74.22c-1.09,0-1.66-.66-1.66-2v-5h-1.18l-.07-.21.46-.49h.79V79c.32-.34.81-.78,1.14-1.12l.25,0c0,.71-.05,1.7-.05,2.52h1.94a.54.54,0,0,1-.1.7h-1.84v4.35c0,1.38.54,1.64,1,1.64a2.43,2.43,0,0,0,1-.28l.15.44Z"/><path class="cls-2" d="M528.22,87.91v-.48c1-.1,1.12-.19,1.12-1.31V83.33c0-1.41-.54-2.13-1.68-2.11a2.42,2.42,0,0,0-1.81.89v4c0,1.11.14,1.21,1.16,1.31v.48H523.3v-.48c1-.08,1.21-.17,1.21-1.31v-8.2c0-.9,0-1.12-1.19-1.22v-.45a10.16,10.16,0,0,0,2.53-.58v5.81a3.84,3.84,0,0,1,2.47-1.25c1.4,0,2.37.87,2.37,2.91v3c0,1.12.13,1.21,1.12,1.29v.48Z"/><path class="cls-2" d="M539,86.46a3.88,3.88,0,0,1-2.82,1.65,3.4,3.4,0,0,1-3.34-3.66,4.34,4.34,0,0,1,1.11-3,3.49,3.49,0,0,1,2.53-1.25A2.66,2.66,0,0,1,539,82.87c0,.34-.07.49-.35.56s-2.51.22-4.54.29c0,2.28,1.35,3.22,2.55,3.22a2.88,2.88,0,0,0,2-.87ZM536,80.88c-.78,0-1.54.73-1.78,2.11,1,0,1.9,0,2.91,0,.3,0,.4-.09.4-.34A1.58,1.58,0,0,0,536,80.88Z"/><path class="cls-2" d="M544,87.91h-3.92v-.48c1.07-.1,1.18-.19,1.18-1.29V82.6c0-1.12-.07-1.18-1.06-1.29v-.43a9.41,9.41,0,0,0,2.4-.7v1.87c.6-.88,1.31-1.82,2.16-1.82a.89.89,0,0,1,1,.82,1.14,1.14,0,0,1-.58.94.33.33,0,0,1-.44,0,1.1,1.1,0,0,0-.77-.42c-.36,0-1,.52-1.36,1.39v3.2c0,1.12.09,1.21,1.4,1.31Z"/><path class="cls-2" d="M546.74,88.15a1,1,0,0,1-1-1.09,1,1,0,0,1,1-1.09,1.06,1.06,0,0,1,1.07,1.09A1,1,0,0,1,546.74,88.15Z"/><path class="cls-1" d="M418.6,6.19a5.09,5.09,0,0,1,1.25-3.5,4.76,4.76,0,0,1,3.74-1.39,4.89,4.89,0,0,1,3.78,1.39,5,5,0,0,1,1.29,3.5,4.71,4.71,0,0,1-1.29,3.37,5,5,0,0,1-3.78,1.35,4.85,4.85,0,0,1-3.74-1.35A4.81,4.81,0,0,1,418.6,6.19Z"/></g></g></svg>