<svg xmlns="http://www.w3.org/2000/svg" viewBox="0 0 548.51 174.78"><defs><style>.cls-1{fill:#ec1c24;}.cls-2,.cls-3{fill:#404041;}.cls-2{stroke:#404041;stroke-miterlimit:10;}</style></defs><title>Asset 2logo1</title><g id="Layer_2" data-name="Layer 2"><g id="Layer_1-2" data-name="Layer 1"><path class="cls-1" d="M24.05,117.72V98.66a62.92,62.92,0,0,1-10.28,5.43c-.67.26-1.28.54-1.87.83v12.8H4.41a27.29,27.29,0,0,0,.49,3.91c7.81,1.81,15.82,3.75,23.85,5.52,10,2.21,10.06,2.18,14.51-7.33a4.79,4.79,0,0,0-.21-3.92c-2.84-4.54-5.76-9-8.72-13.54l0,15.36Z"/><path class="cls-1" d="M235.87,150.86c7.76-1.59,15.27-3.07,22.76-4.67s7.55-1.64,8.28-9.53c.53-5.79.89-11.61,1.34-17.62l-52.45,2.64C222.92,132,229.39,141.45,235.87,150.86Z"/><path class="cls-1" d="M98.35,151.23c6.37,8.35,12.08,15.82,18,23.55l25-27.35Z"/><path class="cls-1" d="M42.56,147.51c-2.88-9.31-8-14.56-18-15.76-6.89-.83-13.6-3.15-20.84-4.91C2.43,137.38,1.22,147.22,0,157.06L52.18,171a9.12,9.12,0,0,0-.26-1.43C48.75,162.22,44.9,155.1,42.56,147.51Z"/><path class="cls-1" d="M208.44,119.77,199.82,128l22.79,43.32c9.37-4.1,12.84-10.11,8.77-16.79C224.17,142.67,216.14,131.33,208.44,119.77Z"/><path class="cls-1" d="M32.89,84.32a13.25,13.25,0,0,1,11.59-5.88q6.27,0,9.33,3.65t3.07,11v4.26L74.58,69.1,51.7,46.32l-36.16,16L25.62,78.73A9.65,9.65,0,0,1,32.89,84.32Z"/><path class="cls-1" d="M152.33,146.14l9,18.73,44.33-13.34-9.91-20.29Z"/><path class="cls-1" d="M29.12,50.14a119.65,119.65,0,0,0-19.06-5.92,3.29,3.29,0,0,0-2.75,1.51C4.92,50.74,2.78,55.86.56,61l.78,1Z"/><path class="cls-1" d="M113.71,115.77a23.37,23.37,0,0,0-4.58,0c-6.88.74-13.78,1.19-20.69,1.65a21.29,21.29,0,0,1-5.31.64,21.82,21.82,0,0,1-2.32-.12l-1.19.09c-8.93.67-17.86,1.41-26.79,2-3,.2-4.56,1.75-6.39,4.09-4.41,5.63-4.85,10.94-.65,16.68a8.46,8.46,0,0,1,.81,1.62c3.25,7,3.25,7,11.07,6.4,21.64-1.59,43.29-3.14,64.92-4.81,1.34-.1,3.3-.7,3.81-1.68,3.37-6.35,6.42-12.88,9.65-19.5-1.34-.55-2.14-1-3-1.21-3.74-1.07-7.32-2.64-11-3.91a20.12,20.12,0,0,1-7.88-1.71C114,116,113.87,115.85,113.71,115.77Z"/><path class="cls-1" d="M105.82,85.66c4-9.84,8-19.58,12.35-30.21L62.86,47.27C74.73,63.4,90.15,74.36,105.82,85.66Z"/><path class="cls-1" d="M138.19,46.3,123,57.83l23.29,15.11Z"/><path class="cls-1" d="M146.89,112.77l-14.32,30.3c7.2-.65,13.26-.33,18.8-1.88,9.49-2.66,9.37-3.16,6.62-12.39-1.15-3.87-2.31-7.73-3.52-11.74a17.71,17.71,0,0,1-2.92-1A15,15,0,0,1,146.89,112.77Z"/><path class="cls-1" d="M251.8,65.78C255,69.93,258.24,74,261.49,78a12.7,12.7,0,0,0,1.37,1.41l.81-1h8A4.92,4.92,0,0,0,274,74c0-12-.09-23.92-.14-36.51L244.4,56.27c1.59,2,3.14,4,4.69,6h2.71Z"/><path class="cls-1" d="M14.84,31.18c2.29,4,4.78,9,8.53,10.75C32.19,46.06,41.8,49,51.09,40.71,46.45,27.67,44.24,13.55,39.64,0h-16Q19.7,12.47,15.87,24.83C15.23,26.91,14,29.72,14.84,31.18Z"/><path class="cls-1" d="M224.85,42.26c-7.67,4.22-15,8.54-22.54,12.26-4.06,2-5.24,4.78-5.34,9-.13,5.07,1.21,9.73,2.85,14.3,4.24.17,7.65,1.34,10.23,3.54q4.19,3.59,4.18,10.07v1.36l8.45,1.15V78.47H233V95.32l1.18.16c2.53-8.17,5-15.92,7.3-23.63V62.4C236,55.65,230.45,49,224.85,42.26ZM232,72.34a6.6,6.6,0,0,1-8.38,0,5.47,5.47,0,0,1,0-7.66,6.67,6.67,0,0,1,8.43,0,5.46,5.46,0,0,1,0,7.66Z"/><path class="cls-1" d="M214.23,98.57v9.56a19.28,19.28,0,0,0,1.39,8q3.54-.15,7.06-.35V99.71C219.91,99.35,217.11,99,214.23,98.57Z"/><path class="cls-1" d="M194.59,117.75a13.66,13.66,0,0,1-9.39-3.28,10.54,10.54,0,0,1-3.72-8.27A10.91,10.91,0,0,1,186,96.79c2.79-2,6.74-3.09,11.82-3.27a5.41,5.41,0,0,0-1.66-1.09c-2.23-.84-4.47-1.62-6.71-2.37h-7.14a10.06,10.06,0,0,1,.26-2.27c-1.34-.43-2.67-.86-4-1.3l-2.45,2.09a12.24,12.24,0,0,1,.11,1.62h-2L168,95.53l.18,0q8.16,3,8.16,10.38a10,10,0,0,1-4.53,8.53q-4.51,3.26-11.65,3.26c1.64,5.79,3.39,11.63,5.15,17.69,6.62-1.94,12.6-4,18.74-5.4,8.43-1.92,15.59-5.48,19.71-13.45a11.11,11.11,0,0,0,.75-1.86c-.09-.36-.16-.74-.23-1.15A12.44,12.44,0,0,1,194.59,117.75Z"/><path class="cls-1" d="M118.06,49.9c1.1.16,3.08-.7,3.46-1.59a46.91,46.91,0,0,0,3.27-10.21c1.12-6.39,1.79-12.87,2.51-19.34.68-6,1.24-12,1.9-18.76h-4.27L63,41.73C82,44.58,100,47.32,118.06,49.9Z"/><path class="cls-1" d="M145.34,104.78a20.68,20.68,0,0,0,2.07-8.39,9.09,9.09,0,0,1-2.68-6.62,10.64,10.64,0,0,1,.73-3.93c-.39-1.39-.83-2.91-1.32-4.59,0-.15,0-.34-.1-.44-1.65-2-2.94-4.58-5-5.78-5.87-3.36-12.08-6.14-18.73-9.44-2.19,5-5.41,9.87-7.35,14.69a18,18,0,0,1,9.85-2.52q7.33,0,11.74,3.46a10.87,10.87,0,0,1,4.4,9h-10.3a5,5,0,0,0-1.42-3.65,6,6,0,0,0-4.46-1.45,6.2,6.2,0,0,0-4,1.18,3.7,3.7,0,0,0-1.42,3A3.19,3.19,0,0,0,118.9,92a16.66,16.66,0,0,0,5.47,1.81,46.06,46.06,0,0,1,6.49,1.73Q139,98.58,139,106a10,10,0,0,1-4.53,8.53,15.37,15.37,0,0,1-1.45.91c2.07.49,4.13,1,6,1.62,2-3.74,3.64-6.72,4.9-9.25a10.7,10.7,0,0,1-.43-3Z"/><path class="cls-1" d="M171.87,81.22A12,12,0,0,1,174,83.36l.28-.24c4.71-4.51,9.56-8.87,14.42-13.22,3.11-2.79,5.45-10.85,3.55-14.41-5.74-10.75-11.73-21.37-17.68-32.16-1.41.78-2.61,1.39-3.75,2.11C162.5,30.64,154.14,35.78,146,41.2a5.17,5.17,0,0,0-1.64,4.34c1,5,3.16,9.85,3.65,14.88.76,7.73,3.58,13.49,8.36,17.65a22.93,22.93,0,0,1,3.8-.31Q167.47,77.76,171.87,81.22Z"/><path class="cls-1" d="M281.68,113.58a3.89,3.89,0,0,0,1,2.75,4,4,0,0,0,3.05,1.1,5.86,5.86,0,0,0,1-.07l-4.64-5.63A4.4,4.4,0,0,0,281.68,113.58Z"/><path class="cls-1" d="M288.17,110.2l1.44,1.81a4,4,0,0,0-.79-1.28A3,3,0,0,0,288.17,110.2Z"/><path class="cls-1" d="M285.74,109.59a3.87,3.87,0,0,0-3.05,1.14,4,4,0,0,0-.63,1l4.64,5.63a3.58,3.58,0,0,0,2.12-1,3.84,3.84,0,0,0,1.05-2.75,4.62,4.62,0,0,0-.26-1.57l-1.44-1.81A4.51,4.51,0,0,0,285.74,109.59Z"/><path class="cls-1" d="M424.38,65.33a3.66,3.66,0,0,0-2.9,1.11,3.91,3.91,0,0,0-1,2.71,3.54,3.54,0,0,0,3.88,3.74,3.83,3.83,0,0,0,2.93-1.07,3.77,3.77,0,0,0,1-2.67,3.92,3.92,0,0,0-1-2.71A3.74,3.74,0,0,0,424.38,65.33Z"/><path class="cls-2" d="M24.05,98.66v19.06h10.3l0-15.36-4.64-7.08C27.78,96.36,25.91,97.52,24.05,98.66Z"/><path class="cls-2" d="M11.9,90.45a6.66,6.66,0,0,1,6.34-3.64c2.12,0,3.61.5,4.49,1.5s1.31,2.57,1.32,4.76l3.35-1.71L19.2,78.79a13.09,13.09,0,0,0-7.63,4.67l-.32-4.31H1.59V104.5L11.9,99.25Z"/><path class="cls-2" d="M56.88,97.35V93.09q0-7.35-3.07-11t-9.33-3.65a13.25,13.25,0,0,0-11.59,5.88,9.65,9.65,0,0,0-7.27-5.59q4.36,7.06,8.7,14.12V91.23a6.42,6.42,0,0,1,6.41-4.42q3.24,0,4.53,1.52a7.38,7.38,0,0,1,1.28,4.79v19.59c.12.2.24.38.35.58Z"/><path class="cls-2" d="M53.22,114.48l3.66-.25v-5.67Z"/><path class="cls-2" d="M11.9,104.92c-5.65,2.75-7.78,7-7.49,12.8H11.9Z"/><path class="cls-2" d="M11.9,104.92V99.25L1.59,104.5v13.22H4.41C4.12,111.9,6.25,107.67,11.9,104.92Z"/><path class="cls-2" d="M56.88,108.56V97.35l-10,15.94c-.11-.2-.23-.38-.35-.58v5H56.88v-3.49l-3.66.25Z"/><path class="cls-2" d="M22.66,78.44a16.7,16.7,0,0,0-3.46.35l8.2,12.57-3.35,1.71v5.59c1.86-1.14,3.73-2.3,5.64-3.38l4.64,7.08V92.85q-4.35-7-8.7-14.12A15.32,15.32,0,0,0,22.66,78.44Z"/><path class="cls-2" d="M88.44,117.43l-7.63.52a21.82,21.82,0,0,0,2.32.12A21.29,21.29,0,0,0,88.44,117.43Z"/><path class="cls-2" d="M101.38,98.47l-.07-2.64a21,21,0,0,0-2.84-9.6c-3.93-2.67-7.9-5.28-11.91-7.88a23.21,23.21,0,0,0-3.5-.27,19.13,19.13,0,0,0-8.5,1.84L64.94,95.5c-.06.73-.09,1.46-.09,2.22v.46q0,9.19,5,14.55c.19.2.4.38.6.57l27.05-1.85Q101.37,106.34,101.38,98.47Zm-18.25,11.3a6.83,6.83,0,0,1-5.92-2.91q-2.05-2.91-2.06-8.41,0-6.18,2.06-9.12a6.74,6.74,0,0,1,5.85-2.94,6.83,6.83,0,0,1,5.92,3c1.4,2,2.1,4.76,2.1,8.35,0,4.21-.7,7.28-2.1,9.19A6.83,6.83,0,0,1,83.13,109.77Z"/><path class="cls-2" d="M95.8,82.86a16.63,16.63,0,0,0-9.24-4.51c4,2.6,8,5.21,11.91,7.88A16.44,16.44,0,0,0,95.8,82.86Z"/><path class="cls-2" d="M73.42,80.54a16.17,16.17,0,0,0-6.36,6.95,21.7,21.7,0,0,0-2.12,8l9.62-15.58C74.17,80.12,73.79,80.32,73.42,80.54Z"/><path class="cls-2" d="M96.43,112.71c.37-.4.71-.83,1-1.26l-27,1.85A16.7,16.7,0,0,0,80.81,118l7.63-.52A16.08,16.08,0,0,0,96.43,112.71Z"/><path class="cls-2" d="M150.67,104.78l-3.78,8a15,15,0,0,0,4.66,3.26,17.71,17.71,0,0,0,2.92,1l-3.7-12.28Z"/><path class="cls-2" d="M143.51,104.78a10.7,10.7,0,0,0,.43,3c.53-1.07,1-2.06,1.4-3Z"/><path class="cls-2" d="M147.41,96.39c0-2.9-.68-6-1.95-10.55a10.64,10.64,0,0,0-.73,3.93A9.09,9.09,0,0,0,147.41,96.39Z"/><path class="cls-2" d="M160.12,93.5A13.39,13.39,0,0,1,156.26,92a3.18,3.18,0,0,1-1.63-2.77,3.71,3.71,0,0,1,1.43-3,6.19,6.19,0,0,1,4-1.18h.1l-9.87-4.85-.56.37,4.73,18.53C156.34,97.29,158.22,95.41,160.12,93.5Z"/><path class="cls-2" d="M174,83.36a12,12,0,0,0-2.14-2.14q-4.41-3.47-11.75-3.46a22.93,22.93,0,0,0-3.8.31A31.1,31.1,0,0,0,168,84.2C170.59,85,172.14,85,174,83.36Z"/><path class="cls-2" d="M176.27,90.2a12.24,12.24,0,0,0-.11-1.62l-1.89,1.62Z"/><path class="cls-2" d="M176.38,106q0-7.38-8.16-10.38l-.18,0q-3.73,3.21-7.39,6.44a16,16,0,0,1,3.84,1.44,3.3,3.3,0,0,1,1.87,3,3.47,3.47,0,0,1-1.51,2.94,7.45,7.45,0,0,1-4.48,1.13,10.47,10.47,0,0,1-2.25-.25c.67,2.52,1.36,5,2.08,7.55q7.14,0,11.65-3.26A10,10,0,0,0,176.38,106Z"/><path class="cls-2" d="M165.75,87.84l-.42-.21a4,4,0,0,1,.21.41Z"/><path class="cls-2" d="M164.54,86.55a4.54,4.54,0,0,1,.79,1.08l.42.21-.21.2A5.37,5.37,0,0,1,166,90.2h8.3l1.89-1.62A10.53,10.53,0,0,0,174,83.36c-1.87,1.65-3.42,1.63-6,.84a31.1,31.1,0,0,1-11.68-6.13,15.87,15.87,0,0,0-6,2.19l9.87,4.85A5.94,5.94,0,0,1,164.54,86.55Z"/><path class="cls-2" d="M147.41,96.39q3.39,3.47,11.07,5.07c.79.17,1.51.34,2.17.51q3.66-3.24,7.39-6.44a45,45,0,0,0-6.31-1.68c-.58-.11-1.11-.23-1.61-.35-1.9,1.91-3.78,3.79-5.63,5.66l-4.73-18.53c-.26.19-.53.37-.77.57a11.24,11.24,0,0,0-3.53,4.64C146.73,90.36,147.43,93.49,147.41,96.39Z"/><path class="cls-2" d="M145.34,104.78c-.4.93-.87,1.92-1.4,3a11.64,11.64,0,0,0,1.71,3.51,13.6,13.6,0,0,0,1.24,1.49l3.78-8Z"/><path class="cls-2" d="M155.31,109a5.41,5.41,0,0,1-2-4.21h-2.51l3.7,12.28a22.35,22.35,0,0,0,5.69.69h0c-.72-2.52-1.41-5-2.08-7.55A6.9,6.9,0,0,1,155.31,109Z"/><path class="cls-2" d="M189.47,90.06c-2.31-.78-4.61-1.53-6.88-2.27a10.06,10.06,0,0,0-.26,2.27Z"/><path class="cls-2" d="M206.06,91.61l8.17,1.16V91.41q0-6.48-4.18-10.07c-2.58-2.2-6-3.37-10.23-3.54,1.46,4,3.16,8,4.32,12.14A2.85,2.85,0,0,0,206.06,91.61Z"/><path class="cls-2" d="M197.21,85.45c-1-2.69-1.81-5.1-2.6-7.33a19.51,19.51,0,0,0-4.37,1.26,14.41,14.41,0,0,0-4.81,3.25l11,2.94C196.72,85.52,197,85.48,197.21,85.45Z"/><path class="cls-2" d="M204.8,111c-.4-1.44-.83-2.87-1.28-4.3a6.76,6.76,0,0,1-2.48,2.14,8.81,8.81,0,0,1-4.2,1,5.27,5.27,0,0,1-3.71-1.25,4.13,4.13,0,0,1-1.35-3.17l0-.61q.51-5.34,8.24-5.35H201c-.43-1.14-.87-2.28-1.33-3.41a7.53,7.53,0,0,0-1.82-2.57c-5.08.18-9,1.26-11.82,3.27a10.91,10.91,0,0,0-4.54,9.41,10.54,10.54,0,0,0,3.72,8.27,13.66,13.66,0,0,0,9.39,3.28,12.44,12.44,0,0,0,9.73-4.17c.07.41.14.79.23,1.15A7.12,7.12,0,0,0,204.8,111Z"/><path class="cls-2" d="M214.23,98.57c-2.52-.35-5.1-.71-7.77-1.06,1.81,5.9,3.4,11.34,5.21,16.71a3.35,3.35,0,0,0,2.41,2l1.54-.07a19.28,19.28,0,0,1-1.39-8Z"/><path class="cls-2" d="M211.67,114.22c-1.81-5.37-3.4-10.81-5.21-16.71,2.67.35,5.25.71,7.77,1.06v-5.8l-8.17-1.16a2.85,2.85,0,0,1-1.92-1.67c-1.16-4.13-2.86-8.1-4.32-12.14-.36,0-.72,0-1.09,0a23.75,23.75,0,0,0-4.12.36c.79,2.23,1.65,4.64,2.6,7.33.32,0,.64-.06,1-.06a5.38,5.38,0,0,1,4.33,1.6,6.34,6.34,0,0,1,1.38,4.28v2.21h-4.74c-.46,0-.89,0-1.32,0a7.53,7.53,0,0,1,1.82,2.57c.46,1.13.9,2.27,1.33,3.41h2.91v6.63a5.94,5.94,0,0,1-.38.59c.45,1.43.88,2.86,1.28,4.3a7.12,7.12,0,0,1-.25,3.71,9.61,9.61,0,0,0,.81,2.31h10.41v-.6l-.15-.31-1.54.07A3.35,3.35,0,0,1,211.67,114.22Z"/><path class="cls-2" d="M192.63,90.06a4.25,4.25,0,0,1,1.48-3.42,5.12,5.12,0,0,1,2.37-1.07l-11-2.94a11,11,0,0,0-1,1.23,10.6,10.6,0,0,0-1.81,3.93c2.27.74,4.57,1.49,6.88,2.27Z"/><path class="cls-2" d="M222.68,99.71v16.07c3.46-.2,6.91-.42,10.34-.64v-14a8.64,8.64,0,0,0-2-.41C228.27,100.42,225.49,100.08,222.68,99.71Z"/><path class="cls-2" d="M222.68,78.47V93.92L233,95.32V78.47Z"/><path class="cls-2" d="M227.85,63.18a5.81,5.81,0,0,0-4.22,1.5,5.47,5.47,0,0,0,0,7.66,6.6,6.6,0,0,0,8.38,0,5.46,5.46,0,0,0,0-7.66A5.85,5.85,0,0,0,227.85,63.18Z"/><path class="cls-2" d="M222.68,99.71c2.81.37,5.59.71,8.37,1a8.64,8.64,0,0,1,2,.41v-5.8l-10.34-1.4Z"/><path class="cls-2" d="M222.68,117H233v-1.9c-3.43.22-6.88.44-10.34.64Z"/><path class="cls-2" d="M251.8,62.29h-2.71l2.71,3.49Z"/><path class="cls-2" d="M269.21,86.36l.38-.44-.48.31Z"/><path class="cls-2" d="M262.86,79.43c1.23,1.1,2.67,2.07,3,1.83,1.67-1.16,4.05-1.64,5.8-2.79h-8Z"/><path class="cls-2" d="M242.53,63.67c-.34-.42-.69-.84-1-1.27v9.45c.47-1.54.93-3.07,1.38-4.6A4.52,4.52,0,0,0,242.53,63.67Z"/><path class="cls-2" d="M269.43,105.42l-7.32-10.87,3.16-3.65-6-7.26-5.47,6.42-2,2.56v-18l-4-4.81a116.14,116.14,0,0,0-6.31,18.93v25.16l10.3,0v-8.59l3.71-3.71,7.85,12.26,5.67,0C269.17,110.87,269.3,108.1,269.43,105.42Z"/><path class="cls-2" d="M274,112.25c-.13,1.59-.25,3.19-.38,4.79h3.61Z"/><path class="cls-2" d="M262.86,79.43l-3.59,4.21,6,7.26,3.94-4.54-.1-.13.48-.31L276,78.47h-4.36c-1.75,1.15-4.13,1.63-5.8,2.79C265.53,81.5,264.09,80.53,262.86,79.43Z"/><path class="cls-2" d="M269.43,105.42c-.13,2.68-.26,5.45-.4,8.38l-5.67,0,2.06,3.21h8.23c.13-1.6.25-3.2.38-4.79Z"/><path class="cls-2" d="M241.5,117h10.3v-3.17l-10.3,0Z"/><path class="cls-2" d="M251.8,74.63V65.78l-2.71-3.49H241.5v.11c.34.43.69.85,1,1.27a4.52,4.52,0,0,1,.35,3.58c-.45,1.53-.91,3.06-1.38,4.6v16.9a116.14,116.14,0,0,1,6.31-18.93Z"/><path class="cls-2" d="M139,106q0-7.38-8.16-10.38a46.06,46.06,0,0,0-6.49-1.73A16.66,16.66,0,0,1,118.9,92a3.19,3.19,0,0,1-1.62-2.77,3.7,3.7,0,0,1,1.42-3,6.2,6.2,0,0,1,4-1.18,6,6,0,0,1,4.46,1.45,5,5,0,0,1,1.42,3.65h10.3a10.87,10.87,0,0,0-4.4-9q-4.39-3.47-11.74-3.46a18,18,0,0,0-9.85,2.52,20.16,20.16,0,0,0-1.66,7.49A30.78,30.78,0,0,0,113.76,99a29.31,29.31,0,0,0,7.37,2.44,21.09,21.09,0,0,1,6,2,3.3,3.3,0,0,1,1.87,3,3.47,3.47,0,0,1-1.51,2.94,7.44,7.44,0,0,1-4.47,1.13,10.11,10.11,0,0,1-2.35-.27c2.74,3,7.58,4.1,12.37,5.22a15.37,15.37,0,0,0,1.45-.91A10,10,0,0,0,139,106Z"/><path class="cls-2" d="M107.93,110.73l4.6-.31c-.76-1.94-1.47-3.8-2.17-5.64h-4.2A10.86,10.86,0,0,0,107.93,110.73Z"/><path class="cls-2" d="M114.19,116a20.12,20.12,0,0,0,7.88,1.71,35.48,35.48,0,0,0-8.36-2C113.87,115.85,114,116,114.19,116Z"/><path class="cls-2" d="M118,109a5.41,5.41,0,0,1-2-4.21h-5.56c.7,1.84,1.41,3.7,2.17,5.64l-4.6.31.36.55a14.24,14.24,0,0,0,5.42,4.49,35.48,35.48,0,0,1,8.36,2h.73A20.65,20.65,0,0,0,133,115.4c-4.79-1.12-9.63-2.23-12.37-5.22A6.88,6.88,0,0,1,118,109Z"/><path class="cls-2" d="M112.92,80.28c-.44.29-.88.59-1.29.92a10.59,10.59,0,0,0-4.26,8.57q0,6,6.39,9.25a30.78,30.78,0,0,1-2.5-11.25A20.16,20.16,0,0,1,112.92,80.28Z"/><path class="cls-3" d="M301.42,98.34q0-8.88,4.21-14.28a14.3,14.3,0,0,1,21.74-.76V63.19H334V118h-6l-.33-4.14q-3.94,4.84-11,4.85a13.15,13.15,0,0,1-10.92-5.49q-4.23-5.49-4.23-14.33Zm6.6.75q0,6.55,2.7,10.27a8.76,8.76,0,0,0,7.49,3.7,9.61,9.61,0,0,0,9.16-5.63V89.71a9.7,9.7,0,0,0-9.09-5.45A8.82,8.82,0,0,0,310.72,88Q308,91.75,308,99.09Z"/><path class="cls-3" d="M360.2,118.66a16.86,16.86,0,0,1-12.76-5.15q-4.92-5.16-4.92-13.78V98.52a23.17,23.17,0,0,1,2.19-10.25,17.12,17.12,0,0,1,6.13-7.06,15.42,15.42,0,0,1,8.54-2.55q7.51,0,11.69,5t4.17,14.19v2.74H349.11a13.71,13.71,0,0,0,3.34,9.21,10.44,10.44,0,0,0,8.11,3.52,11.47,11.47,0,0,0,5.91-1.43,14.92,14.92,0,0,0,4.25-3.78l4,3.14Q369.9,118.67,360.2,118.66Zm-.82-34.58a8.78,8.78,0,0,0-6.7,2.91,14.08,14.08,0,0,0-3.35,8.14h19.32v-.5a12.57,12.57,0,0,0-2.71-7.78A8.26,8.26,0,0,0,359.38,84.08Z"/><path class="cls-3" d="M405.33,107.72a4.87,4.87,0,0,0-2-4.16q-2-1.47-7-2.55a33,33,0,0,1-8-2.56A11.34,11.34,0,0,1,384,94.88,8.5,8.5,0,0,1,382.58,90a10,10,0,0,1,4-8,15.71,15.71,0,0,1,10.25-3.28q6.57,0,10.64,3.39a10.77,10.77,0,0,1,4.08,8.66h-6.63A6,6,0,0,0,402.64,86a8.68,8.68,0,0,0-5.8-2,9,9,0,0,0-5.63,1.57,5,5,0,0,0-2,4.1,4,4,0,0,0,1.89,3.6,23.23,23.23,0,0,0,6.82,2.32,35.39,35.39,0,0,1,8,2.63,11.78,11.78,0,0,1,4.54,3.69,9.05,9.05,0,0,1,1.48,5.26,9.88,9.88,0,0,1-4.13,8.29q-4.14,3.12-10.73,3.12a19.45,19.45,0,0,1-8.2-1.64,13.28,13.28,0,0,1-5.58-4.58,11,11,0,0,1-2-6.36h6.59a6.79,6.79,0,0,0,2.66,5.25,10.27,10.27,0,0,0,6.54,2,10.63,10.63,0,0,0,6-1.52A4.66,4.66,0,0,0,405.33,107.72Z"/><path class="cls-3" d="M420.55,69.15a3.91,3.91,0,0,1,1-2.71,3.66,3.66,0,0,1,2.9-1.11,3.74,3.74,0,0,1,2.93,1.11,3.92,3.92,0,0,1,1,2.71,3.77,3.77,0,0,1-1,2.67,3.83,3.83,0,0,1-2.93,1.07,3.54,3.54,0,0,1-3.88-3.74Zm7.13,48.8h-6.6V79.38h6.6Z"/><path class="cls-3" d="M436.66,98.34q0-9,4.17-14.35a13.34,13.34,0,0,1,11.05-5.33c4.7,0,8.38,1.67,11,5l.33-4.27h6V117q0,7.49-4.44,11.8t-11.92,4.31a19.79,19.79,0,0,1-8.16-1.78,14.06,14.06,0,0,1-6.1-4.88l3.42-4a12.91,12.91,0,0,0,10.37,5.24,10.15,10.15,0,0,0,7.51-2.71q2.68-2.72,2.69-7.63V114.1q-4,4.56-10.8,4.56a13.16,13.16,0,0,1-11-5.46Q436.67,107.76,436.66,98.34Zm6.63.75q0,6.52,2.67,10.25a8.71,8.71,0,0,0,7.49,3.72,9.66,9.66,0,0,0,9.16-5.67V89.79a9.77,9.77,0,0,0-9.09-5.53A8.76,8.76,0,0,0,446,88Q443.29,91.75,443.29,99.09Z"/><path class="cls-3" d="M485.42,79.38l.22,4.85a14,14,0,0,1,11.55-5.57q12.22,0,12.33,13.8V118h-6.6V92.42c0-2.78-.66-4.83-1.9-6.16s-3.19-2-5.83-2A9.5,9.5,0,0,0,489.56,86a11.58,11.58,0,0,0-3.78,4.49V118h-6.6V79.38Z"/><path class="cls-3" d="M541.92,107.72a4.87,4.87,0,0,0-2-4.16q-2-1.47-7-2.55a33.15,33.15,0,0,1-8-2.56,11.23,11.23,0,0,1-4.34-3.57A8.5,8.5,0,0,1,519.18,90a10,10,0,0,1,4-8,15.69,15.69,0,0,1,10.25-3.28q6.55,0,10.64,3.39a10.77,10.77,0,0,1,4.08,8.66h-6.63a6,6,0,0,0-2.3-4.67,8.65,8.65,0,0,0-5.79-2,9,9,0,0,0-5.64,1.57,5,5,0,0,0-2,4.1,4,4,0,0,0,1.89,3.6,23.32,23.32,0,0,0,6.83,2.32,35.29,35.29,0,0,1,8,2.63A11.78,11.78,0,0,1,547,102a9.05,9.05,0,0,1,1.48,5.26,9.86,9.86,0,0,1-4.13,8.29q-4.14,3.12-10.73,3.12a19.49,19.49,0,0,1-8.2-1.64,13.34,13.34,0,0,1-5.58-4.58,11,11,0,0,1-2-6.36h6.59a6.82,6.82,0,0,0,2.66,5.25,10.27,10.27,0,0,0,6.54,2,10.66,10.66,0,0,0,6-1.52A4.67,4.67,0,0,0,541.92,107.72Z"/></g></g></svg>