<svg xmlns="http://www.w3.org/2000/svg" viewBox="0 0 549.57 71.44"><defs><style>.cls-1{fill:#ec1c24;}.cls-2{fill:#404041;stroke:#404041;stroke-miterlimit:10;}</style></defs><title>Asset 4logo3</title><g id="Layer_2" data-name="Layer 2"><g id="Layer_1-2" data-name="Layer 1"><path class="cls-1" d="M282.6,52.16a4.14,4.14,0,0,1,1-2.87,3.91,3.91,0,0,1,3.07-1.15,4,4,0,0,1,3.1,1.15,4.08,4.08,0,0,1,1.06,2.87,3.83,3.83,0,0,1-1.06,2.77A4.08,4.08,0,0,1,286.7,56a4,4,0,0,1-3.07-1.11A3.9,3.9,0,0,1,282.6,52.16Z"/><path class="cls-2" d="M10.23,17.48l.32,4.35a13.65,13.65,0,0,1,11.17-5.07q7.5,0,10.3,5.93a13.35,13.35,0,0,1,11.67-5.93q6.31,0,9.41,3.68t3.09,11.08V56.33H45.77V31.56q0-3.31-1.29-4.83T39.92,25.2a6.47,6.47,0,0,0-6.46,4.45l0,26.68H23.12V31.59q0-3.37-1.33-4.88c-.89-1-2.39-1.51-4.52-1.51a6.71,6.71,0,0,0-6.39,3.66V56.33H.5V17.48Z"/><path class="cls-2" d="M64.21,36.19a23.11,23.11,0,0,1,2.22-10.31,16.35,16.35,0,0,1,6.41-7,18.73,18.73,0,0,1,9.71-2.48,17.73,17.73,0,0,1,12.84,4.81q5,4.82,5.55,13.07l.07,2.66q0,8.94-5,14.34T82.63,56.69q-8.4,0-13.41-5.39t-5-14.65Zm10.37.73c0,3.69.7,6.52,2.09,8.47a7.48,7.48,0,0,0,11.84,0c1.42-1.93,2.12-5,2.12-9.26,0-3.62-.7-6.43-2.12-8.42a6.87,6.87,0,0,0-6-3,6.76,6.76,0,0,0-5.88,3C75.28,29.71,74.58,32.78,74.58,36.92Z"/><path class="cls-2" d="M166.46,44.91a3.34,3.34,0,0,0-1.89-3,21.19,21.19,0,0,0-6-1.95q-13.86-2.91-13.86-11.78a10.66,10.66,0,0,1,4.3-8.63q4.29-3.47,11.22-3.47,7.4,0,11.82,3.49a11,11,0,0,1,4.44,9H166.06a5.05,5.05,0,0,0-1.43-3.68,6.09,6.09,0,0,0-4.49-1.45,6.22,6.22,0,0,0-4.06,1.18,3.74,3.74,0,0,0-1.43,3,3.18,3.18,0,0,0,1.63,2.78,16.65,16.65,0,0,0,5.51,1.83A46.27,46.27,0,0,1,168.32,34q8.24,3,8.23,10.45a10.14,10.14,0,0,1-4.56,8.6q-4.56,3.29-11.78,3.29a20.59,20.59,0,0,1-8.67-1.75,14.47,14.47,0,0,1-5.94-4.77,11.08,11.08,0,0,1-2.16-6.55h9.84a5.42,5.42,0,0,0,2.05,4.23,8.14,8.14,0,0,0,5.1,1.48,7.47,7.47,0,0,0,4.5-1.14A3.51,3.51,0,0,0,166.46,44.91Z"/><path class="cls-2" d="M205.74,55.65a11.7,11.7,0,0,1-1.05-3.49,12.56,12.56,0,0,1-9.8,4.21,13.81,13.81,0,0,1-9.46-3.31,10.62,10.62,0,0,1-3.75-8.33,11,11,0,0,1,4.58-9.48q4.58-3.3,13.23-3.33h4.77V29.69a6.41,6.41,0,0,0-1.38-4.31,5.41,5.41,0,0,0-4.36-1.61A6.15,6.15,0,0,0,194.41,25a4.26,4.26,0,0,0-1.49,3.45H182.54a10.49,10.49,0,0,1,2.08-6.25,13.86,13.86,0,0,1,5.89-4.5,21.48,21.48,0,0,1,8.55-1.64q7.17,0,11.4,3.61t4.21,10.14V46.67c0,3.69.54,6.48,1.55,8.37v.61Zm-8.59-7.22a8.94,8.94,0,0,0,4.24-1,6.7,6.7,0,0,0,2.87-2.75V38h-3.87q-7.8,0-8.3,5.39l0,.61a4.13,4.13,0,0,0,1.36,3.19A5.28,5.28,0,0,0,197.15,48.43Z"/><path class="cls-2" d="M222.57,6.75a5.07,5.07,0,0,1,1.57-3.84,6.72,6.72,0,0,1,8.49,0,5.07,5.07,0,0,1,1.58,3.84,5.09,5.09,0,0,1-1.6,3.87,6.65,6.65,0,0,1-8.44,0A5.09,5.09,0,0,1,222.57,6.75Zm11,48.9H223.18V16.8H233.6Z"/><path class="cls-2" d="M256.25,40.06l-3.73,3.74V55.65H242.14V.5h10.38V31.05l2-2.58,9.94-11.67h12.46L262.89,33l15.26,22.66H266.23Z"/><path class="cls-2" d="M300.2,35.9q0-8.94,4.23-14.38a14.41,14.41,0,0,1,21.9-.77V.5H333V55.65h-6.1l-.32-4.17q-4,4.89-11.1,4.89a13.28,13.28,0,0,1-11-5.53q-4.26-5.54-4.25-14.44Zm6.64.75q0,6.62,2.73,10.34a8.81,8.81,0,0,0,7.54,3.74,9.68,9.68,0,0,0,9.22-5.67V27.21a9.76,9.76,0,0,0-9.15-5.49,8.85,8.85,0,0,0-7.61,3.77Q306.84,29.26,306.84,36.65Z"/><path class="cls-2" d="M359.4,56.37a17,17,0,0,1-12.85-5.19q-5-5.19-5-13.88V36.08a23.35,23.35,0,0,1,2.21-10.32A17.21,17.21,0,0,1,350,18.65a15.57,15.57,0,0,1,8.6-2.57q7.57,0,11.78,5t4.2,14.29v2.77H348.23a13.84,13.84,0,0,0,3.36,9.28,10.56,10.56,0,0,0,8.17,3.53,11.56,11.56,0,0,0,6-1.43A15.11,15.11,0,0,0,370,45.7l4.06,3.16Q369.16,56.36,359.4,56.37Zm-.83-34.83a8.83,8.83,0,0,0-6.75,2.93,14.19,14.19,0,0,0-3.37,8.2h19.46v-.5c-.19-3.38-1.1-6-2.73-7.85A8.36,8.36,0,0,0,358.57,21.54Z"/><path class="cls-2" d="M404.85,45.34a4.89,4.89,0,0,0-2-4.18q-2-1.48-7.07-2.57a34,34,0,0,1-8-2.58,11.49,11.49,0,0,1-4.38-3.59,8.63,8.63,0,0,1-1.41-5,10.06,10.06,0,0,1,4-8.07,15.77,15.77,0,0,1,10.33-3.31q6.6,0,10.71,3.41a10.84,10.84,0,0,1,4.11,8.73h-6.67a6,6,0,0,0-2.32-4.71,8.7,8.7,0,0,0-5.83-2,9.13,9.13,0,0,0-5.68,1.58,5,5,0,0,0-2,4.13,4,4,0,0,0,1.9,3.62,23.14,23.14,0,0,0,6.88,2.34,36.34,36.34,0,0,1,8.06,2.65A11.76,11.76,0,0,1,410,39.58a9.09,9.09,0,0,1,1.49,5.3,9.94,9.94,0,0,1-4.16,8.34q-4.17,3.15-10.81,3.15a19.61,19.61,0,0,1-8.26-1.66,13.43,13.43,0,0,1-5.61-4.61,11.05,11.05,0,0,1-2-6.41h6.64a6.9,6.9,0,0,0,2.67,5.3,10.42,10.42,0,0,0,6.59,1.95,10.7,10.7,0,0,0,6.05-1.52A4.7,4.7,0,0,0,404.85,45.34Z"/><path class="cls-2" d="M420.18,6.5a4,4,0,0,1,1-2.73,3.72,3.72,0,0,1,2.93-1.12A3.77,3.77,0,0,1,427,3.77a3.91,3.91,0,0,1,1,2.73,3.8,3.8,0,0,1-1,2.69,3.82,3.82,0,0,1-2.94,1.08,3.77,3.77,0,0,1-2.93-1.08A3.84,3.84,0,0,1,420.18,6.5Zm7.18,49.15h-6.64V16.8h6.64Z"/><path class="cls-2" d="M436.41,35.9q0-9.07,4.2-14.45a13.43,13.43,0,0,1,11.13-5.37q7.11,0,11.09,5l.33-4.31h6.07V54.71q0,7.55-4.47,11.89t-12,4.34a20.12,20.12,0,0,1-8.23-1.79,14.16,14.16,0,0,1-6.13-4.92l3.44-4a13,13,0,0,0,10.45,5.28,10.19,10.19,0,0,0,7.56-2.73c1.8-1.82,2.71-4.38,2.71-7.68V51.77q-4,4.59-10.88,4.6a13.27,13.27,0,0,1-11-5.5Q436.42,45.38,436.41,35.9Zm6.68.75q0,6.57,2.69,10.33a8.76,8.76,0,0,0,7.54,3.75A9.73,9.73,0,0,0,462.55,45V27.28a9.85,9.85,0,0,0-9.16-5.56,8.83,8.83,0,0,0-7.57,3.77Q443.09,29.26,443.09,36.65Z"/><path class="cls-2" d="M485.52,16.8l.22,4.88a14.17,14.17,0,0,1,11.63-5.6q12.31,0,12.43,13.9V55.65h-6.65V29.94q0-4.2-1.92-6.21t-5.87-2a9.58,9.58,0,0,0-5.67,1.72A11.7,11.7,0,0,0,485.88,28V55.65h-6.64V16.8Z"/><path class="cls-2" d="M542.43,45.34a4.89,4.89,0,0,0-2-4.18q-2-1.48-7.07-2.57a34,34,0,0,1-8-2.58,11.49,11.49,0,0,1-4.38-3.59,8.64,8.64,0,0,1-1.42-5,10.07,10.07,0,0,1,4-8.07,15.77,15.77,0,0,1,10.33-3.31q6.6,0,10.71,3.41a10.84,10.84,0,0,1,4.11,8.73H542a6,6,0,0,0-2.32-4.71,8.7,8.7,0,0,0-5.83-2,9.13,9.13,0,0,0-5.68,1.58,5,5,0,0,0-2,4.13,4,4,0,0,0,1.9,3.62,23.16,23.16,0,0,0,6.87,2.34A36.26,36.26,0,0,1,543,35.86a11.76,11.76,0,0,1,4.57,3.72,9.09,9.09,0,0,1,1.49,5.3,9.94,9.94,0,0,1-4.16,8.34q-4.17,3.15-10.81,3.15a19.61,19.61,0,0,1-8.26-1.66,13.52,13.52,0,0,1-5.62-4.61,11.12,11.12,0,0,1-2-6.41h6.64a6.9,6.9,0,0,0,2.67,5.3,10.42,10.42,0,0,0,6.59,1.95,10.7,10.7,0,0,0,6-1.52A4.7,4.7,0,0,0,542.43,45.34Z"/><path class="cls-2" d="M128.83,44.91a3.34,3.34,0,0,0-1.89-3,21.22,21.22,0,0,0-6-1.95Q107,37.05,107,28.18a10.68,10.68,0,0,1,4.29-8.63q4.29-3.47,11.22-3.47,7.39,0,11.83,3.49a11,11,0,0,1,4.43,9H128.43A5,5,0,0,0,127,24.93a6.08,6.08,0,0,0-4.49-1.45,6.22,6.22,0,0,0-4.06,1.18,3.77,3.77,0,0,0-1.43,3,3.18,3.18,0,0,0,1.63,2.78,16.65,16.65,0,0,0,5.51,1.83A46.44,46.44,0,0,1,130.7,34q8.22,3,8.22,10.45a10.14,10.14,0,0,1-4.56,8.6q-4.56,3.29-11.78,3.29a20.59,20.59,0,0,1-8.67-1.75A14.6,14.6,0,0,1,108,49.85a11.06,11.06,0,0,1-2.15-6.55h9.83a5.42,5.42,0,0,0,2,4.23A8.14,8.14,0,0,0,122.8,49a7.45,7.45,0,0,0,4.5-1.14A3.51,3.51,0,0,0,128.83,44.91Z"/><path class="cls-1" d="M419.1,6.69a5.09,5.09,0,0,1,1.25-3.5,4.76,4.76,0,0,1,3.74-1.39,4.89,4.89,0,0,1,3.78,1.39,5,5,0,0,1,1.29,3.5,4.71,4.71,0,0,1-1.29,3.37,5,5,0,0,1-3.78,1.35,4.85,4.85,0,0,1-3.74-1.35A4.81,4.81,0,0,1,419.1,6.69Z"/></g></g></svg>