<svg xmlns="http://www.w3.org/2000/svg" viewBox="0 0 296.75 133.58"><defs><style>.cls-1{fill:#404041;stroke:#404041;stroke-miterlimit:10;}.cls-2{fill:#ec1c24;}</style></defs><title>Asset 6logo5</title><g id="Layer_2" data-name="Layer 2"><g id="Layer_1-2" data-name="Layer 1"><path class="cls-1" d="M23,37.67V56.73h10.3l0-15.36q-2.33-3.52-4.65-7.08C26.68,35.37,24.82,36.53,23,37.67Z"/><path class="cls-1" d="M10.8,29.46a6.67,6.67,0,0,1,6.35-3.64c2.11,0,3.61.5,4.49,1.5s1.3,2.57,1.31,4.76l3.36-1.71L18.1,17.8a13.1,13.1,0,0,0-7.62,4.67l-.32-4.31H.5V43.5l10.3-5.24Z"/><path class="cls-1" d="M55.79,36.36V32.1q0-7.35-3.07-11t-9.34-3.65A13.24,13.24,0,0,0,31.8,23.33a9.67,9.67,0,0,0-7.27-5.6l8.69,14.13V30.24a6.44,6.44,0,0,1,6.42-4.42q3.24,0,4.53,1.52a7.38,7.38,0,0,1,1.28,4.79V51.72l.35.58Z"/><path class="cls-1" d="M52.13,53.49l3.66-.25V47.57C54.57,49.53,53.36,51.5,52.13,53.49Z"/><path class="cls-1" d="M10.8,43.92C5.16,46.68,3,50.9,3.31,56.73H10.8Z"/><path class="cls-1" d="M10.8,43.92V38.26L.5,43.5V56.73H3.31C3,50.9,5.16,46.68,10.8,43.92Z"/><path class="cls-1" d="M55.79,47.57V36.36L45.8,52.3l-.35-.58v5H55.79V53.24l-3.66.25C53.36,51.5,54.57,49.53,55.79,47.57Z"/><path class="cls-1" d="M21.57,17.45a16.73,16.73,0,0,0-3.47.35l8.21,12.57L23,32.08s0,.06,0,.09v5.5c1.86-1.14,3.72-2.3,5.63-3.38q2.32,3.56,4.65,7.08l0-9.51L24.53,17.73A15.34,15.34,0,0,0,21.57,17.45Z"/><path class="cls-1" d="M87.35,56.44,79.72,57a21.82,21.82,0,0,0,2.32.12A21.35,21.35,0,0,0,87.35,56.44Z"/><path class="cls-1" d="M100.29,37.48l-.07-2.64a20.92,20.92,0,0,0-2.85-9.6c-3.92-2.67-7.9-5.28-11.91-7.88A21.76,21.76,0,0,0,82,17.09a19.13,19.13,0,0,0-8.5,1.84L63.85,34.51c-.06.73-.1,1.46-.1,2.22v.46q0,9.2,5,14.55l.6.57,27.06-1.85Q100.28,45.35,100.29,37.48ZM82,48.78a6.82,6.82,0,0,1-5.92-2.91Q74,43,74.05,37.46q0-6.18,2.07-9.12A6.74,6.74,0,0,1,82,25.39a6.82,6.82,0,0,1,5.91,3c1.41,2,2.11,4.76,2.11,8.35,0,4.21-.7,7.28-2.11,9.19A6.82,6.82,0,0,1,82,48.78Z"/><path class="cls-1" d="M94.71,21.87a16.66,16.66,0,0,0-9.25-4.51c4,2.6,8,5.21,11.91,7.88A16.07,16.07,0,0,0,94.71,21.87Z"/><path class="cls-1" d="M72.32,19.55a16.17,16.17,0,0,0-6.36,7,21.89,21.89,0,0,0-2.11,8l9.62-15.58C73.08,19.12,72.7,19.33,72.32,19.55Z"/><path class="cls-1" d="M95.33,51.72a15.57,15.57,0,0,0,1-1.26L69.32,52.31A16.7,16.7,0,0,0,79.72,57l7.63-.52A16.09,16.09,0,0,0,95.33,51.72Z"/><path class="cls-1" d="M149.57,43.79l-3.77,8A15,15,0,0,0,150.46,55a17.41,17.41,0,0,0,2.92,1l-3.7-12.28Z"/><path class="cls-1" d="M142.42,43.79a10.7,10.7,0,0,0,.43,3c.53-1.07,1-2.06,1.4-3Z"/><path class="cls-1" d="M146.31,35.4c0-2.9-.68-6-1.95-10.55a10.64,10.64,0,0,0-.73,3.93A9.13,9.13,0,0,0,146.31,35.4Z"/><path class="cls-1" d="M159,32.5a13.1,13.1,0,0,1-3.87-1.45,3.2,3.2,0,0,1-1.62-2.77,3.71,3.71,0,0,1,1.43-3,6.12,6.12,0,0,1,4-1.18h.11l-9.88-4.85-.55.37c1.71,6.72,3.24,12.73,4.72,18.53Z"/><path class="cls-1" d="M172.91,22.37a12.31,12.31,0,0,0-2.13-2.14q-4.41-3.46-11.75-3.46a23.05,23.05,0,0,0-3.81.31,31.37,31.37,0,0,0,11.69,6.13C169.5,24,171.05,24,172.91,22.37Z"/><path class="cls-1" d="M175.18,29.21a14.21,14.21,0,0,0-.11-1.62l-1.9,1.62Z"/><path class="cls-1" d="M175.28,45q0-7.38-8.16-10.38l-.17-.06c-2.5,2.15-5,4.29-7.39,6.45a16,16,0,0,1,3.84,1.44,3.32,3.32,0,0,1,1.87,3,3.5,3.5,0,0,1-1.52,2.94,7.44,7.44,0,0,1-4.47,1.13,10.64,10.64,0,0,1-2.26-.25c.67,2.52,1.37,5,2.09,7.55q7.13,0,11.65-3.26A10,10,0,0,0,175.28,45Z"/><path class="cls-1" d="M164.65,26.85l-.41-.21c.07.14.15.27.21.41Z"/><path class="cls-1" d="M163.45,25.56a4.91,4.91,0,0,1,.79,1.08l.41.21-.2.2a5.37,5.37,0,0,1,.43,2.16h8.29l1.9-1.62a10.45,10.45,0,0,0-2.16-5.22c-1.86,1.64-3.41,1.63-6,.84a31.37,31.37,0,0,1-11.69-6.13,15.93,15.93,0,0,0-6,2.19l9.88,4.85A6,6,0,0,1,163.45,25.56Z"/><path class="cls-1" d="M146.31,35.4q3.39,3.47,11.08,5.07c.79.17,1.5.34,2.17.51,2.43-2.16,4.89-4.3,7.39-6.45a47.14,47.14,0,0,0-6.32-1.67c-.57-.11-1.1-.23-1.6-.36l-5.64,5.67c-1.48-5.8-3-11.81-4.72-18.53-.26.19-.53.37-.78.57a11.33,11.33,0,0,0-3.53,4.64C145.63,29.37,146.33,32.5,146.31,35.4Z"/><path class="cls-1" d="M144.25,43.79c-.4.93-.87,1.92-1.4,3a11.41,11.41,0,0,0,1.71,3.51,12.56,12.56,0,0,0,1.24,1.49l3.77-8Z"/><path class="cls-1" d="M154.22,48a5.34,5.34,0,0,1-2-4.2h-2.51l3.7,12.28a22.29,22.29,0,0,0,5.69.69h0c-.72-2.52-1.42-5-2.09-7.55A6.74,6.74,0,0,1,154.22,48Z"/><path class="cls-1" d="M188.38,29.07c-2.32-.78-4.62-1.53-6.89-2.27a10.67,10.67,0,0,0-.25,2.27Z"/><path class="cls-1" d="M205,30.62l8.17,1.16V30.42q0-6.48-4.19-10.07c-2.57-2.2-6-3.37-10.22-3.55,1.45,4.05,3.15,8,4.31,12.15A2.89,2.89,0,0,0,205,30.62Z"/><path class="cls-1" d="M196.12,24.46l-2.6-7.34a19.74,19.74,0,0,0-4.37,1.27,14.45,14.45,0,0,0-4.82,3.25l11.06,2.94C195.62,24.53,195.86,24.49,196.12,24.46Z"/><path class="cls-1" d="M203.7,50c-.39-1.44-.82-2.87-1.28-4.3A6.92,6.92,0,0,1,200,47.87a8.82,8.82,0,0,1-4.21,1,5.26,5.26,0,0,1-3.7-1.25,4.1,4.1,0,0,1-1.36-3.17l0-.61q.5-5.36,8.23-5.35h1c-.43-1.14-.88-2.28-1.33-3.41a7.57,7.57,0,0,0-1.83-2.57c-5.07.18-9,1.26-11.81,3.27a10.92,10.92,0,0,0-4.55,9.41,10.52,10.52,0,0,0,3.73,8.27,13.66,13.66,0,0,0,9.39,3.28,12.47,12.47,0,0,0,9.73-4.17,11.69,11.69,0,0,0,.23,1.15A7,7,0,0,0,203.7,50Z"/><path class="cls-1" d="M213.14,37.58c-2.53-.35-5.11-.71-7.77-1.06,1.81,5.9,3.39,11.34,5.21,16.71a3.35,3.35,0,0,0,2.41,2l1.54-.07a19.12,19.12,0,0,1-1.39-8Z"/><path class="cls-1" d="M210.58,53.23c-1.82-5.37-3.4-10.81-5.21-16.71,2.66.35,5.24.71,7.77,1.06v-5.8L205,30.62A2.89,2.89,0,0,1,203,29c-1.16-4.13-2.86-8.1-4.31-12.15-.37,0-.72,0-1.1,0a24.67,24.67,0,0,0-4.11.35l2.6,7.34c.31,0,.63-.06,1-.06a5.39,5.39,0,0,1,4.33,1.6,6.39,6.39,0,0,1,1.37,4.28v2.21h-4.74c-.45,0-.88,0-1.32,0a7.57,7.57,0,0,1,1.83,2.57c.45,1.13.9,2.27,1.33,3.41h2.9v6.63a4.56,4.56,0,0,1-.38.59c.46,1.43.89,2.86,1.28,4.3a7,7,0,0,1-.24,3.71,10.06,10.06,0,0,0,.8,2.31h10.41v-.61c0-.09-.09-.2-.14-.3l-1.54.07A3.35,3.35,0,0,1,210.58,53.23Z"/><path class="cls-1" d="M191.54,29.07A4.25,4.25,0,0,1,193,25.64a5.22,5.22,0,0,1,2.37-1.06l-11.06-2.94a12.19,12.19,0,0,0-1,1.23,10.6,10.6,0,0,0-1.81,3.93c2.27.74,4.57,1.49,6.89,2.27Z"/><path class="cls-1" d="M221.59,38.72V54.79c3.46-.2,6.91-.42,10.33-.64v-14a8.52,8.52,0,0,0-2-.41C227.17,39.43,224.4,39.09,221.59,38.72Z"/><path class="cls-1" d="M221.59,17.48V32.93l10.33,1.4V17.48Z"/><path class="cls-1" d="M226.76,2.19a5.83,5.83,0,0,0-4.23,1.5A5.09,5.09,0,0,0,221,7.5a5.05,5.05,0,0,0,1.59,3.85,6.59,6.59,0,0,0,8.37,0,5.05,5.05,0,0,0,1.59-3.85A5,5,0,0,0,231,3.69,5.82,5.82,0,0,0,226.76,2.19Z"/><path class="cls-1" d="M221.59,38.72c2.81.37,5.58.71,8.36,1a8.52,8.52,0,0,1,2,.41v-5.8l-10.33-1.4Z"/><path class="cls-1" d="M221.59,56.05h10.33v-1.9c-3.42.22-6.87.44-10.33.64Z"/><path class="cls-1" d="M250.71,1.3H248l2.72,3.49Z"/><path class="cls-1" d="M268.11,25.37l.38-.44-.48.31Z"/><path class="cls-1" d="M261.77,18.44c1.23,1.1,2.66,2.07,3,1.83,1.68-1.16,4.05-1.64,5.8-2.79h-8Z"/><path class="cls-1" d="M241.44,2.68c-.34-.42-.69-.84-1-1.27v9.44l1.38-4.59A4.56,4.56,0,0,0,241.44,2.68Z"/><path class="cls-1" d="M268.33,44.43,261,33.56l3.16-3.65c-2-2.42-4-4.84-6-7.26l-5.46,6.42-2,2.56v-18l-4-4.81a115.19,115.19,0,0,0-6.31,18.93V52.92l10.3,0V44.29l3.71-3.71,7.85,12.26,5.67,0C268.07,49.88,268.21,47.11,268.33,44.43Z"/><path class="cls-1" d="M272.93,51.25c-.12,1.6-.25,3.2-.37,4.8h3.6Z"/><path class="cls-1" d="M261.77,18.44l-3.6,4.21c2,2.42,4,4.84,6,7.26l3.94-4.54-.1-.13.48-.31L275,17.48h-4.37c-1.75,1.15-4.12,1.63-5.8,2.79C264.43,20.51,263,19.54,261.77,18.44Z"/><path class="cls-1" d="M268.33,44.43c-.12,2.68-.26,5.45-.39,8.38l-5.67,0,2.06,3.21h8.23c.12-1.6.25-3.2.37-4.8Z"/><path class="cls-1" d="M240.41,56.05h10.3V52.88l-10.3,0Z"/><path class="cls-1" d="M250.71,13.64V4.79L248,1.3h-7.58v.11c.34.43.69.85,1,1.27a4.56,4.56,0,0,1,.35,3.58l-1.38,4.59V27.76a115.19,115.19,0,0,1,6.31-18.93Z"/><path class="cls-1" d="M137.93,45q0-7.38-8.17-10.38a44.92,44.92,0,0,0-6.48-1.73,16.83,16.83,0,0,1-5.48-1.81,3.2,3.2,0,0,1-1.62-2.77,3.71,3.71,0,0,1,1.43-3,6.13,6.13,0,0,1,4-1.18,6,6,0,0,1,4.45,1.45,5,5,0,0,1,1.43,3.65h10.3a10.9,10.9,0,0,0-4.4-9q-4.41-3.46-11.75-3.46a18,18,0,0,0-9.84,2.52,19.77,19.77,0,0,0-1.66,7.49A30.57,30.57,0,0,0,112.67,38,29.37,29.37,0,0,0,120,40.47a21.06,21.06,0,0,1,6,2,3.3,3.3,0,0,1,1.87,3,3.5,3.5,0,0,1-1.52,2.94,7.44,7.44,0,0,1-4.47,1.13,10.52,10.52,0,0,1-2.34-.27c2.73,3,7.58,4.1,12.37,5.22a15.37,15.37,0,0,0,1.45-.91A10,10,0,0,0,137.93,45Z"/><path class="cls-1" d="M106.84,49.74l4.59-.31c-.76-1.94-1.46-3.8-2.16-5.64h-4.21A10.87,10.87,0,0,0,106.84,49.74Z"/><path class="cls-1" d="M113.1,55A19.9,19.9,0,0,0,121,56.75a35.56,35.56,0,0,0-8.37-2C112.78,54.86,112.93,55,113.1,55Z"/><path class="cls-1" d="M116.86,48a5.34,5.34,0,0,1-2-4.2h-5.56c.7,1.84,1.4,3.7,2.16,5.64l-4.59.31c.12.19.23.37.36.55a14.37,14.37,0,0,0,5.41,4.49,35.56,35.56,0,0,1,8.37,2h.73A20.7,20.7,0,0,0,132,54.41c-4.79-1.12-9.64-2.23-12.37-5.22A6.75,6.75,0,0,1,116.86,48Z"/><path class="cls-1" d="M111.83,19.29a14.55,14.55,0,0,0-1.3.92,10.59,10.59,0,0,0-4.26,8.57q0,6,6.4,9.25a30.57,30.57,0,0,1-2.5-11.25A19.77,19.77,0,0,1,111.83,19.29Z"/><path class="cls-1" d="M16.2,98.29q0-8.88,4.21-14.27a13.29,13.29,0,0,1,11-5.4,13.37,13.37,0,0,1,10.73,4.63V63.14h6.59V117.9H42.69l-.33-4.14q-3.95,4.84-11,4.85a13.15,13.15,0,0,1-10.92-5.49q-4.23-5.49-4.23-14.33Zm6.6.75q0,6.55,2.7,10.27A8.77,8.77,0,0,0,33,113a9.61,9.61,0,0,0,9.16-5.63V89.67a9.69,9.69,0,0,0-9.09-5.46A8.82,8.82,0,0,0,25.5,88Q22.8,91.7,22.8,99Z"/><path class="cls-1" d="M74.25,118.61a16.86,16.86,0,0,1-12.76-5.15q-4.92-5.16-4.92-13.78V98.47a23.17,23.17,0,0,1,2.19-10.25,17.25,17.25,0,0,1,6.13-7.06,15.43,15.43,0,0,1,8.54-2.54q7.53,0,11.69,4.95t4.17,14.19v2.74H63.17a13.69,13.69,0,0,0,3.33,9.22,10.48,10.48,0,0,0,8.11,3.51,11.51,11.51,0,0,0,5.92-1.43A14.89,14.89,0,0,0,84.77,108l4,3.14Q83.95,118.62,74.25,118.61ZM73.43,84a8.79,8.79,0,0,0-6.7,2.91,14.11,14.11,0,0,0-3.35,8.14H82.7v-.5q-.28-5-2.71-7.78A8.26,8.26,0,0,0,73.43,84Z"/><path class="cls-1" d="M121.18,107.67a4.87,4.87,0,0,0-2-4.16q-2-1.47-7-2.55a33,33,0,0,1-7.94-2.56,11.34,11.34,0,0,1-4.35-3.57,8.48,8.48,0,0,1-1.41-4.92,10,10,0,0,1,4-8,15.69,15.69,0,0,1,10.25-3.27q6.55,0,10.64,3.38a10.77,10.77,0,0,1,4.08,8.66h-6.63a6,6,0,0,0-2.3-4.67,8.64,8.64,0,0,0-5.79-2,9,9,0,0,0-5.63,1.57,4.93,4.93,0,0,0-2,4.1,4,4,0,0,0,1.89,3.6,23.32,23.32,0,0,0,6.83,2.32,35.25,35.25,0,0,1,8,2.64A11.64,11.64,0,0,1,126.3,102a9.09,9.09,0,0,1,1.48,5.25,9.87,9.87,0,0,1-4.14,8.29q-4.14,3.12-10.73,3.12a19.49,19.49,0,0,1-8.2-1.64,13.31,13.31,0,0,1-5.57-4.58,11,11,0,0,1-2-6.36h6.6a6.78,6.78,0,0,0,2.65,5.25,10.27,10.27,0,0,0,6.54,2,10.64,10.64,0,0,0,6-1.52A4.65,4.65,0,0,0,121.18,107.67Z"/><path class="cls-1" d="M135.6,69.1a4,4,0,0,1,1-2.71,4.38,4.38,0,0,1,5.83,0,3.88,3.88,0,0,1,1,2.71,3.73,3.73,0,0,1-1,2.67,3.9,3.9,0,0,1-6.81-2.67Zm7.13,48.8h-6.59V79.33h6.59Z"/><path class="cls-1" d="M151.24,98.29q0-9,4.17-14.35a13.33,13.33,0,0,1,11.05-5.32q7,0,11,5l.32-4.28h6V117q0,7.48-4.44,11.8t-11.93,4.31a19.79,19.79,0,0,1-8.16-1.78,14.09,14.09,0,0,1-6.09-4.88l3.42-4A12.9,12.9,0,0,0,167,127.7q4.81,0,7.5-2.71t2.7-7.63v-3.31q-4,4.56-10.8,4.56a13.21,13.21,0,0,1-11-5.45Q151.24,107.7,151.24,98.29Zm6.63.75q0,6.52,2.67,10.25A8.69,8.69,0,0,0,168,113a9.67,9.67,0,0,0,9.16-5.66V89.74a9.77,9.77,0,0,0-9.09-5.53A8.76,8.76,0,0,0,160.58,88Q157.87,91.7,157.87,99Z"/><path class="cls-1" d="M197.88,79.33l.21,4.85a14.06,14.06,0,0,1,11.55-5.56q12.23,0,12.34,13.79V117.9h-6.6V92.37c0-2.78-.66-4.83-1.9-6.16s-3.19-2-5.83-2A9.5,9.5,0,0,0,202,85.92a11.58,11.58,0,0,0-3.78,4.49V117.9h-6.6V79.33Z"/><path class="cls-1" d="M253.87,107.67a4.87,4.87,0,0,0-2-4.16q-2-1.47-7-2.55a33,33,0,0,1-8-2.56,11.34,11.34,0,0,1-4.35-3.57,8.48,8.48,0,0,1-1.41-4.92,10,10,0,0,1,4-8,15.71,15.71,0,0,1,10.25-3.27q6.56,0,10.64,3.38a10.77,10.77,0,0,1,4.08,8.66h-6.63a6,6,0,0,0-2.3-4.67,8.64,8.64,0,0,0-5.79-2,9,9,0,0,0-5.63,1.57,4.92,4.92,0,0,0-2,4.1,4,4,0,0,0,1.89,3.6,23.23,23.23,0,0,0,6.82,2.32,35.52,35.52,0,0,1,8,2.64A11.68,11.68,0,0,1,259,102a9,9,0,0,1,1.48,5.25,9.87,9.87,0,0,1-4.14,8.29q-4.12,3.12-10.72,3.12a19.45,19.45,0,0,1-8.2-1.64,13.28,13.28,0,0,1-5.58-4.58,11.06,11.06,0,0,1-2-6.36h6.6a6.81,6.81,0,0,0,2.65,5.25,10.32,10.32,0,0,0,6.55,2,10.63,10.63,0,0,0,6-1.52A4.66,4.66,0,0,0,253.87,107.67Z"/><path class="cls-2" d="M135.15,69.38a4.17,4.17,0,0,1,1-2.87,3.9,3.9,0,0,1,3.07-1.15,4,4,0,0,1,3.11,1.15,4.06,4.06,0,0,1,1.06,2.87,3.87,3.87,0,0,1-1.06,2.77,4.1,4.1,0,0,1-3.11,1.11,3.68,3.68,0,0,1-4.09-3.88Z"/><path class="cls-2" d="M288.49,53.21a4.15,4.15,0,0,1,1-2.88,3.91,3.91,0,0,1,3.07-1.15,4,4,0,0,1,3.1,1.15,4.08,4.08,0,0,1,1.06,2.88A3.83,3.83,0,0,1,295.69,56a4.08,4.08,0,0,1-3.1,1.11A4,4,0,0,1,289.52,56,3.89,3.89,0,0,1,288.49,53.21Z"/></g></g></svg>