<svg xmlns="http://www.w3.org/2000/svg" viewBox="0 0 296.25 131.78"><defs><style>.cls-1{fill:#fff;}.cls-2{fill:#ec1c24;}</style></defs><title>Asset 5logo4</title><g id="Layer_2" data-name="Layer 2"><g id="Layer_1-2" data-name="Layer 1"><path class="cls-1" d="M22.46,36.37V55.43h10.3l0-15.36c-1.55-2.35-3.1-4.7-4.65-7.08C26.18,34.07,24.32,35.23,22.46,36.37Z"/><path class="cls-1" d="M10.3,28.16a6.69,6.69,0,0,1,6.35-3.64c2.11,0,3.61.5,4.49,1.5s1.3,2.57,1.31,4.76l3.36-1.71L17.6,16.5A13.1,13.1,0,0,0,10,21.17l-.32-4.31H0V42.21L10.3,37Z"/><path class="cls-1" d="M55.29,35.06V30.8q0-7.35-3.07-11t-9.34-3.65A13.24,13.24,0,0,0,31.3,22,9.65,9.65,0,0,0,24,16.44l8.69,14.12V28.94a6.44,6.44,0,0,1,6.42-4.42q3.24,0,4.53,1.52A7.38,7.38,0,0,1,45,30.83V50.42l.35.58Z"/><path class="cls-1" d="M51.63,52.19l3.66-.25V46.27C54.07,48.23,52.86,50.2,51.63,52.19Z"/><path class="cls-1" d="M10.3,42.63c-5.64,2.75-7.78,7-7.49,12.8H10.3Z"/><path class="cls-1" d="M10.3,42.63V37L0,42.21V55.43H2.81C2.52,49.61,4.66,45.38,10.3,42.63Z"/><path class="cls-1" d="M55.29,46.27V35.06L45.3,51,45,50.42v5H55.29V51.94l-3.66.25C52.86,50.2,54.07,48.23,55.29,46.27Z"/><path class="cls-1" d="M21.07,16.15a16.73,16.73,0,0,0-3.47.35l8.21,12.57-3.36,1.71s0,.06,0,.09v5.5c1.86-1.14,3.72-2.3,5.63-3.38,1.55,2.38,3.1,4.73,4.65,7.08l0-9.51L24,16.44A15.32,15.32,0,0,0,21.07,16.15Z"/><path class="cls-1" d="M86.85,55.14l-7.63.52a21.82,21.82,0,0,0,2.32.12A21.35,21.35,0,0,0,86.85,55.14Z"/><path class="cls-1" d="M99.79,36.18l-.07-2.64a20.92,20.92,0,0,0-2.85-9.6C93,21.27,89,18.66,85,16.06a23,23,0,0,0-3.49-.27A19.13,19.13,0,0,0,73,17.63L63.35,33.21c-.06.73-.1,1.46-.1,2.22v.46q0,9.2,5,14.55l.6.57,27.06-1.85Q99.78,44,99.79,36.18ZM81.54,47.48a6.82,6.82,0,0,1-5.92-2.91q-2.07-2.91-2.07-8.41,0-6.18,2.07-9.12a6.74,6.74,0,0,1,5.85-2.94,6.81,6.81,0,0,1,5.91,3c1.41,2,2.11,4.76,2.11,8.35,0,4.21-.7,7.28-2.11,9.19A6.82,6.82,0,0,1,81.54,47.48Z"/><path class="cls-1" d="M94.21,20.57A16.66,16.66,0,0,0,85,16.06c4,2.6,8,5.21,11.91,7.88A16.07,16.07,0,0,0,94.21,20.57Z"/><path class="cls-1" d="M71.82,18.25a16.23,16.23,0,0,0-6.36,7,21.89,21.89,0,0,0-2.11,8L73,17.63C72.58,17.83,72.2,18,71.82,18.25Z"/><path class="cls-1" d="M94.83,50.42a15.57,15.57,0,0,0,1-1.26L68.82,51a16.7,16.7,0,0,0,10.4,4.65l7.63-.52A16.09,16.09,0,0,0,94.83,50.42Z"/><path class="cls-1" d="M149.07,42.49l-3.77,8A15,15,0,0,0,150,53.74a17.39,17.39,0,0,0,2.92,1l-3.7-12.28Z"/><path class="cls-1" d="M141.92,42.49a10.7,10.7,0,0,0,.43,3c.53-1.07,1-2.06,1.4-3Z"/><path class="cls-1" d="M145.81,34.1c0-2.9-.68-6-1.95-10.54a10.55,10.55,0,0,0-.73,3.92A9.13,9.13,0,0,0,145.81,34.1Z"/><path class="cls-1" d="M158.53,31.21a13.35,13.35,0,0,1-3.87-1.46A3.19,3.19,0,0,1,153,27a3.71,3.71,0,0,1,1.43-3,6.17,6.17,0,0,1,4-1.18h.11L148.72,18l-.55.37c1.71,6.73,3.24,12.73,4.72,18.53Z"/><path class="cls-1" d="M172.41,21.07a12.31,12.31,0,0,0-2.13-2.14q-4.41-3.46-11.75-3.46a23.05,23.05,0,0,0-3.81.31,31.22,31.22,0,0,0,11.69,6.13C169,22.7,170.55,22.72,172.41,21.07Z"/><path class="cls-1" d="M174.68,27.91a14.21,14.21,0,0,0-.11-1.62l-1.9,1.62Z"/><path class="cls-1" d="M174.78,43.67q0-7.38-8.16-10.38l-.17,0q-3.75,3.21-7.39,6.44a16,16,0,0,1,3.84,1.44,3.32,3.32,0,0,1,1.87,3A3.48,3.48,0,0,1,163.25,47a7.44,7.44,0,0,1-4.47,1.13,10.64,10.64,0,0,1-2.26-.25c.67,2.52,1.37,5,2.09,7.55q7.13,0,11.65-3.26A10,10,0,0,0,174.78,43.67Z"/><path class="cls-1" d="M164.15,25.55l-.41-.21c.07.14.15.27.21.41Z"/><path class="cls-1" d="M163,24.26a5.16,5.16,0,0,1,.79,1.08l.41.21-.2.2a5.37,5.37,0,0,1,.43,2.16h8.29l1.9-1.62a10.45,10.45,0,0,0-2.16-5.22c-1.86,1.65-3.41,1.63-6,.84a31.22,31.22,0,0,1-11.69-6.13,16.1,16.1,0,0,0-6,2.19l9.88,4.85A6,6,0,0,1,163,24.26Z"/><path class="cls-1" d="M145.81,34.1q3.39,3.46,11.08,5.07c.79.17,1.5.34,2.17.51q3.65-3.24,7.39-6.44a45.56,45.56,0,0,0-6.32-1.68c-.57-.11-1.1-.23-1.6-.35l-5.64,5.66c-1.48-5.8-3-11.8-4.72-18.53-.26.19-.53.37-.78.57a11.29,11.29,0,0,0-3.53,4.65C145.13,28.07,145.83,31.2,145.81,34.1Z"/><path class="cls-1" d="M143.75,42.49c-.4.93-.87,1.92-1.4,3A11.41,11.41,0,0,0,144.06,49a11.81,11.81,0,0,0,1.24,1.49l3.77-8Z"/><path class="cls-1" d="M153.72,46.7a5.38,5.38,0,0,1-2-4.21h-2.51l3.7,12.28a22.29,22.29,0,0,0,5.69.69h0c-.72-2.52-1.42-5-2.09-7.55A6.86,6.86,0,0,1,153.72,46.7Z"/><path class="cls-1" d="M187.88,27.77c-2.32-.78-4.62-1.53-6.89-2.27a10.67,10.67,0,0,0-.25,2.27Z"/><path class="cls-1" d="M204.47,29.32l8.17,1.16V29.12q0-6.48-4.19-10.07c-2.57-2.2-6-3.37-10.22-3.54,1.45,4,3.15,8,4.31,12.14A2.89,2.89,0,0,0,204.47,29.32Z"/><path class="cls-1" d="M195.62,23.16c-1-2.69-1.81-5.1-2.6-7.33a19.21,19.21,0,0,0-4.37,1.26,14.45,14.45,0,0,0-4.82,3.25l11.06,2.94C195.12,23.23,195.36,23.19,195.62,23.16Z"/><path class="cls-1" d="M203.2,48.73c-.39-1.44-.82-2.87-1.28-4.3a6.73,6.73,0,0,1-2.47,2.14,8.82,8.82,0,0,1-4.21,1,5.26,5.26,0,0,1-3.7-1.25,4.1,4.1,0,0,1-1.36-3.17l0-.61q.5-5.34,8.23-5.35h1c-.43-1.14-.88-2.28-1.33-3.41a7.57,7.57,0,0,0-1.83-2.57c-5.07.18-9,1.26-11.81,3.27a10.92,10.92,0,0,0-4.55,9.41,10.55,10.55,0,0,0,3.73,8.28A13.7,13.7,0,0,0,193,55.46a12.47,12.47,0,0,0,9.73-4.17,11.69,11.69,0,0,0,.23,1.15A7,7,0,0,0,203.2,48.73Z"/><path class="cls-1" d="M212.64,36.28l-7.77-1.06c1.81,5.9,3.39,11.34,5.21,16.71a3.33,3.33,0,0,0,2.41,2c.51,0,1,0,1.54-.07a19.09,19.09,0,0,1-1.39-8Z"/><path class="cls-1" d="M210.08,51.93c-1.82-5.37-3.4-10.81-5.21-16.71l7.77,1.06v-5.8l-8.17-1.16a2.89,2.89,0,0,1-1.93-1.67c-1.16-4.13-2.86-8.1-4.31-12.14-.37,0-.72,0-1.1,0a23.63,23.63,0,0,0-4.11.36c.79,2.23,1.65,4.64,2.6,7.33.31,0,.63-.06,1-.06a5.39,5.39,0,0,1,4.33,1.6A6.39,6.39,0,0,1,202.3,29v2.21h-4.74c-.45,0-.88,0-1.32,0a7.57,7.57,0,0,1,1.83,2.57c.45,1.13.9,2.27,1.33,3.41h2.9v6.63a4.56,4.56,0,0,1-.38.59c.46,1.43.89,2.86,1.28,4.3a7,7,0,0,1-.24,3.71,10.06,10.06,0,0,0,.8,2.31h10.41v-.6c0-.1-.09-.21-.14-.31-.51,0-1,.06-1.54.07A3.33,3.33,0,0,1,210.08,51.93Z"/><path class="cls-1" d="M191,27.77a4.22,4.22,0,0,1,1.48-3.42,5.12,5.12,0,0,1,2.37-1.07l-11.06-2.94a12.19,12.19,0,0,0-1,1.23A10.6,10.6,0,0,0,181,25.5c2.27.74,4.57,1.49,6.89,2.27Z"/><path class="cls-1" d="M221.09,37.42V53.49c3.46-.2,6.91-.42,10.33-.64v-14a8.52,8.52,0,0,0-2-.41C226.67,38.13,223.9,37.79,221.09,37.42Z"/><path class="cls-1" d="M221.09,16.18V31.63L231.42,33V16.18Z"/><path class="cls-1" d="M226.26.89A5.83,5.83,0,0,0,222,2.39a5.09,5.09,0,0,0-1.55,3.81,5.05,5.05,0,0,0,1.59,3.85,6.59,6.59,0,0,0,8.37,0A5.05,5.05,0,0,0,232,6.2a5,5,0,0,0-1.57-3.81A5.82,5.82,0,0,0,226.26.89Z"/><path class="cls-1" d="M221.09,37.42c2.81.37,5.58.71,8.36,1a8.52,8.52,0,0,1,2,.41V33l-10.33-1.4Z"/><path class="cls-1" d="M221.09,54.75h10.33v-1.9c-3.42.22-6.87.44-10.33.64Z"/><path class="cls-1" d="M250.21,0h-2.72l2.72,3.49Z"/><path class="cls-1" d="M267.61,24.07l.38-.44-.48.31Z"/><path class="cls-1" d="M261.27,17.14c1.23,1.1,2.66,2.07,3,1.83,1.68-1.16,4.05-1.64,5.8-2.79h-8Z"/><path class="cls-1" d="M240.94,1.38c-.34-.42-.69-.84-1-1.27V9.56L241.29,5A4.56,4.56,0,0,0,240.94,1.38Z"/><path class="cls-1" d="M267.83,43.13l-7.32-10.87,3.16-3.65c-2-2.42-4-4.84-6-7.26l-5.46,6.42-2,2.56v-18l-4-4.81a115.19,115.19,0,0,0-6.31,18.93V51.62l10.3,0V43l3.71-3.71,7.85,12.26,5.67,0C267.57,48.58,267.71,45.81,267.83,43.13Z"/><path class="cls-1" d="M272.43,50c-.12,1.59-.25,3.19-.37,4.79h3.6Z"/><path class="cls-1" d="M261.27,17.14l-3.6,4.21c2,2.42,4,4.84,6,7.26l3.94-4.54-.1-.13.48-.31,6.46-7.45h-4.37c-1.75,1.15-4.12,1.63-5.8,2.79C263.93,19.21,262.5,18.24,261.27,17.14Z"/><path class="cls-1" d="M267.83,43.13c-.12,2.68-.26,5.45-.39,8.39l-5.67,0,2.06,3.21h8.23c.12-1.6.25-3.2.37-4.79Z"/><path class="cls-1" d="M239.91,54.75h10.3V51.58l-10.3,0Z"/><path class="cls-1" d="M250.21,12.34V3.49L247.49,0h-7.58V.11c.34.43.69.85,1,1.27A4.56,4.56,0,0,1,241.29,5l-1.38,4.6v16.9a115.19,115.19,0,0,1,6.31-18.93Z"/><path class="cls-1" d="M137.43,43.67q0-7.38-8.17-10.38a46.27,46.27,0,0,0-6.48-1.73,16.83,16.83,0,0,1-5.48-1.81A3.19,3.19,0,0,1,115.68,27a3.71,3.71,0,0,1,1.43-3,6.19,6.19,0,0,1,4-1.18,6,6,0,0,1,4.45,1.45A5,5,0,0,1,127,27.91h10.3a10.9,10.9,0,0,0-4.4-9q-4.41-3.46-11.75-3.46A18.07,18.07,0,0,0,111.33,18a19.77,19.77,0,0,0-1.66,7.49,30.57,30.57,0,0,0,2.5,11.25,29.37,29.37,0,0,0,7.36,2.44,21.06,21.06,0,0,1,6,1.95,3.3,3.3,0,0,1,1.87,3A3.48,3.48,0,0,1,125.89,47a7.44,7.44,0,0,1-4.47,1.13,10.54,10.54,0,0,1-2.34-.26c2.73,3,7.58,4.09,12.37,5.21a15.37,15.37,0,0,0,1.45-.91A10,10,0,0,0,137.43,43.67Z"/><path class="cls-1" d="M106.34,48.45l4.59-.32c-.76-1.94-1.46-3.8-2.16-5.64h-4.21A10.93,10.93,0,0,0,106.34,48.45Z"/><path class="cls-1" d="M112.6,53.74a20.08,20.08,0,0,0,7.88,1.71,35.56,35.56,0,0,0-8.37-2C112.28,53.56,112.43,53.66,112.6,53.74Z"/><path class="cls-1" d="M116.36,46.7a5.38,5.38,0,0,1-2-4.21h-5.56c.7,1.84,1.4,3.7,2.16,5.64l-4.59.32c.12.18.23.36.36.54a14.28,14.28,0,0,0,5.41,4.49,35.56,35.56,0,0,1,8.37,2h.73a20.59,20.59,0,0,0,10.24-2.35c-4.79-1.12-9.64-2.23-12.37-5.21A7,7,0,0,1,116.36,46.7Z"/><path class="cls-1" d="M111.33,18c-.45.29-.88.59-1.3.92a10.59,10.59,0,0,0-4.26,8.57q0,6,6.4,9.25a30.57,30.57,0,0,1-2.5-11.25A19.77,19.77,0,0,1,111.33,18Z"/><path class="cls-1" d="M15.7,97q0-8.88,4.21-14.27a13.29,13.29,0,0,1,11-5.4A13.37,13.37,0,0,1,41.65,82V61.85h6.59V116.6H42.19l-.33-4.14q-3.95,4.85-11,4.85a13.15,13.15,0,0,1-10.92-5.49q-4.23-5.49-4.23-14.33Zm6.6.75q0,6.56,2.7,10.27a8.77,8.77,0,0,0,7.49,3.7,9.61,9.61,0,0,0,9.16-5.63V88.37a9.69,9.69,0,0,0-9.09-5.46A8.81,8.81,0,0,0,25,86.66Q22.3,90.4,22.3,97.74Z"/><path class="cls-1" d="M73.75,117.31A16.86,16.86,0,0,1,61,112.16Q56.07,107,56.07,98.38V97.17a23.17,23.17,0,0,1,2.19-10.25,17.25,17.25,0,0,1,6.13-7.06,15.51,15.51,0,0,1,8.54-2.54q7.53,0,11.69,5t4.17,14.19V99.2H62.67A13.69,13.69,0,0,0,66,108.42a10.48,10.48,0,0,0,8.11,3.51A11.51,11.51,0,0,0,80,110.5a14.89,14.89,0,0,0,4.24-3.78l4,3.14Q83.45,117.32,73.75,117.31Zm-.82-34.58a8.79,8.79,0,0,0-6.7,2.91,14.11,14.11,0,0,0-3.35,8.14H82.2v-.49c-.19-3.36-1.09-6-2.71-7.79A8.3,8.3,0,0,0,72.93,82.73Z"/><path class="cls-1" d="M120.68,106.37a4.87,4.87,0,0,0-2-4.16q-2-1.47-7-2.54a33.46,33.46,0,0,1-7.94-2.57,11.34,11.34,0,0,1-4.35-3.57,8.47,8.47,0,0,1-1.41-4.91,10,10,0,0,1,4-8,15.64,15.64,0,0,1,10.25-3.28q6.55,0,10.64,3.38a10.77,10.77,0,0,1,4.08,8.66h-6.63a6,6,0,0,0-2.3-4.67,8.64,8.64,0,0,0-5.79-2,9,9,0,0,0-5.63,1.57,4.93,4.93,0,0,0-2,4.1,4,4,0,0,0,1.89,3.6,23.32,23.32,0,0,0,6.83,2.32,35.75,35.75,0,0,1,8,2.64,11.64,11.64,0,0,1,4.55,3.69,9.09,9.09,0,0,1,1.48,5.25,9.87,9.87,0,0,1-4.14,8.29q-4.14,3.12-10.73,3.12a19.49,19.49,0,0,1-8.2-1.64,13.31,13.31,0,0,1-5.57-4.58,11,11,0,0,1-2-6.36h6.6a6.81,6.81,0,0,0,2.65,5.26,10.32,10.32,0,0,0,6.54,1.94,10.64,10.64,0,0,0,6-1.52A4.65,4.65,0,0,0,120.68,106.37Z"/><path class="cls-1" d="M135.1,67.8a4,4,0,0,1,1-2.71,4.38,4.38,0,0,1,5.83,0,3.88,3.88,0,0,1,1,2.71,4.09,4.09,0,0,1-6.83,2.67A3.81,3.81,0,0,1,135.1,67.8Zm7.13,48.8h-6.59V78h6.59Z"/><path class="cls-1" d="M150.74,97q0-9,4.17-14.34A13.31,13.31,0,0,1,166,77.32q7,0,11,5l.32-4.28h6v37.64q0,7.49-4.44,11.8T167,131.78a19.79,19.79,0,0,1-8.16-1.78,14.09,14.09,0,0,1-6.09-4.88l3.42-4a12.9,12.9,0,0,0,10.37,5.24q4.81,0,7.5-2.71t2.7-7.63v-3.31q-4,4.56-10.8,4.56a13.21,13.21,0,0,1-11-5.45Q150.74,106.4,150.74,97Zm6.63.75q0,6.53,2.67,10.25a8.69,8.69,0,0,0,7.49,3.72,9.67,9.67,0,0,0,9.16-5.66V88.44a9.77,9.77,0,0,0-9.09-5.53,8.75,8.75,0,0,0-7.52,3.75Q157.37,90.4,157.37,97.74Z"/><path class="cls-1" d="M197.38,78l.21,4.85a14.06,14.06,0,0,1,11.55-5.56q12.23,0,12.34,13.79V116.6h-6.6V91.07c0-2.77-.66-4.83-1.9-6.16s-3.19-2-5.83-2a9.5,9.5,0,0,0-5.63,1.71,11.58,11.58,0,0,0-3.78,4.49V116.6h-6.6V78Z"/><path class="cls-1" d="M253.37,106.37a4.87,4.87,0,0,0-2-4.16q-2-1.47-7-2.54a33.4,33.4,0,0,1-8-2.57A11.34,11.34,0,0,1,232,93.53a8.47,8.47,0,0,1-1.41-4.91,10,10,0,0,1,4-8,15.66,15.66,0,0,1,10.25-3.28q6.56,0,10.64,3.38a10.77,10.77,0,0,1,4.08,8.66H253a6,6,0,0,0-2.3-4.67,8.64,8.64,0,0,0-5.79-2,9,9,0,0,0-5.63,1.57,4.92,4.92,0,0,0-2,4.1,4,4,0,0,0,1.89,3.6,23.23,23.23,0,0,0,6.82,2.32,36,36,0,0,1,8,2.64,11.68,11.68,0,0,1,4.54,3.69A9,9,0,0,1,260,105.9a9.87,9.87,0,0,1-4.14,8.29q-4.12,3.12-10.72,3.12a19.45,19.45,0,0,1-8.2-1.64,13.28,13.28,0,0,1-5.58-4.58,11.06,11.06,0,0,1-2-6.36h6.6a6.84,6.84,0,0,0,2.65,5.26,10.37,10.37,0,0,0,6.55,1.94,10.63,10.63,0,0,0,6-1.52A4.66,4.66,0,0,0,253.37,106.37Z"/><path class="cls-2" d="M134.65,68.08a4.17,4.17,0,0,1,1-2.87,3.94,3.94,0,0,1,3.07-1.15,3.81,3.81,0,0,1,4.17,4,3.85,3.85,0,0,1-1.06,2.77A4.1,4.1,0,0,1,138.74,72a4,4,0,0,1-3.07-1.11A4,4,0,0,1,134.65,68.08Z"/><path class="cls-2" d="M288,51.91A4.15,4.15,0,0,1,289,49a3.9,3.9,0,0,1,3.07-1.14,4,4,0,0,1,3.1,1.14,4.08,4.08,0,0,1,1.06,2.88,3.83,3.83,0,0,1-1.06,2.76,4.08,4.08,0,0,1-3.1,1.11A4,4,0,0,1,289,54.67,3.89,3.89,0,0,1,288,51.91Z"/></g></g></svg>